<?xml version="1.0"?>
<svg xmlns="http://www.w3.org/2000/svg" xmlns:lc="http://www.librecad.org" xmlns:xlink="http://www.w3.org/1999/xlink" width="189.88888889mm" height="162.5mm" viewBox="0 0 189.88888889 162.5">
    <g lc:layername="0" lc:is_locked="false" lc:is_construction="false" fill="none" stroke="black" stroke-width="1">
        <line x1="39.52777778" y1="26.25" x2="94.52777778" y2="26.25"/>
        <line x1="15.52777778" y1="106.25" x2="20.52777778" y2="106.25"/>
        <circle cx="30.52777778" cy="16.25" r="2.23606798"/>
        <circle cx="128.52777778" cy="16.25" r="1.41421356"/>
        <circle cx="111.52777778" cy="16.25" r="2"/>
        <circle cx="92.52777778" cy="135.25" r="1.41421356"/>
        <circle cx="107.52777778" cy="135.25" r="2.23606798"/>
        <line x1="15.52777778" y1="141.25" x2="15.52777778" y2="106.25"/>
        <line x1="20.52777778" y1="106.25" x2="20.52777778" y2="16.25"/>
        <path d="M25.52777778,11.25 A5,5 0 0,0 20.52777778,16.25 "/>
        <line x1="162.52777778" y1="131.25" x2="117.52777778" y2="131.25"/>
        <path d="M162.52777778,131.25 A5,5 0 0,0 167.52777778,126.25 "/>
        <line x1="167.52777778" y1="31.25" x2="167.52777778" y2="126.25"/>
        <path d="M167.52777778,31.25 A5,5 0 0,0 162.52777778,26.25 "/>
        <line x1="94.52777778" y1="26.25" x2="94.52777778" y2="16.25"/>
        <path d="M99.52777778,11.25 A5,5 0 0,0 94.52777778,16.25 "/>
        <line x1="99.52777778" y1="11.25" x2="129.52777778" y2="11.25"/>
        <line x1="25.52777778" y1="11.25" x2="34.52777778" y2="11.25"/>
        <line x1="39.52777778" y1="16.25" x2="39.52777778" y2="26.25"/>
        <path d="M39.52777778,16.25 A5,5 0 0,0 34.52777778,11.25 "/>
        <line x1="117.52777778" y1="131.25" x2="117.52777778" y2="141.25"/>
        <line x1="112.52777778" y1="146.25" x2="102.52777778" y2="146.25"/>
        <path d="M112.52777778,146.25 A5,5 0 0,0 117.52777778,141.25 "/>
        <line x1="102.52777778" y1="146.25" x2="102.52777778" y2="151.25"/>
        <path d="M97.52777778,156.25 A5,5 0 0,0 102.52777778,151.25 "/>
        <line x1="97.52777778" y1="156.25" x2="92.52777778" y2="156.25"/>
        <path d="M87.52777778,151.25 A5,5 0 0,0 92.52777778,156.25 "/>
        <line x1="32.52777778" y1="141.25" x2="15.52777778" y2="141.25"/>
        <path d="M32.52777778,141.25 A5,5 0 0,0 37.52777778,136.25 "/>
        <line x1="87.52777778" y1="151.25" x2="87.52777778" y2="133.25"/>
        <path d="M87.52777778,133.25 A5,5 0 0,0 82.52777778,128.25 "/>
        <line x1="82.52777778" y1="128.25" x2="42.52777778" y2="128.25"/>
        <line x1="37.52777778" y1="133.25" x2="37.52777778" y2="136.25"/>
        <path d="M42.52777778,128.25 A5,5 0 0,0 37.52777778,133.25 "/>
        <circle cx="55.52777778" cy="59.25" r="1.51222033"/>
        <circle cx="132.52777778" cy="59.25" r="1.51222033"/>
        <circle cx="132.52777778" cy="121.25" r="1.51222033"/>
        <circle cx="55.52777778" cy="121.25" r="1.51222033"/>
        <circle cx="55.52777778" cy="49.25" r="1.51222033"/>
        <circle cx="132.52777778" cy="49.25" r="1.51222033"/>
        <circle cx="132.52777778" cy="111.25" r="1.51222033"/>
        <circle cx="55.52777778" cy="111.25" r="1.51222033"/>
        <circle cx="65.52777778" cy="49.25" r="1.51222033"/>
        <circle cx="142.52777778" cy="49.25" r="1.51222033"/>
        <circle cx="142.52777778" cy="111.25" r="1.51222033"/>
        <circle cx="65.52777778" cy="111.25" r="1.51222033"/>
        <circle cx="65.52777778" cy="59.25" r="1.51222033"/>
        <circle cx="142.52777778" cy="59.25" r="1.51222033"/>
        <circle cx="142.52777778" cy="121.25" r="1.51222033"/>
        <circle cx="65.52777778" cy="121.25" r="1.51222033"/>
        <circle cx="65.52777778" cy="39.25" r="1.51222033"/>
        <circle cx="142.52777778" cy="39.25" r="1.51222033"/>
        <circle cx="142.52777778" cy="101.25" r="1.51222033"/>
        <circle cx="65.52777778" cy="101.25" r="1.51222033"/>
        <circle cx="55.52777778" cy="39.25" r="1.51222033"/>
        <circle cx="132.52777778" cy="39.25" r="1.51222033"/>
        <circle cx="132.52777778" cy="101.25" r="1.51222033"/>
        <circle cx="55.52777778" cy="101.25" r="1.51222033"/>
        <circle cx="45.52777778" cy="39.25" r="1.51222033"/>
        <circle cx="122.52777778" cy="39.25" r="1.51222033"/>
        <circle cx="122.52777778" cy="101.25" r="1.51222033"/>
        <circle cx="45.52777778" cy="101.25" r="1.51222033"/>
        <circle cx="45.52777778" cy="49.25" r="1.51222033"/>
        <circle cx="122.52777778" cy="49.25" r="1.51222033"/>
        <circle cx="122.52777778" cy="111.25" r="1.51222033"/>
        <circle cx="45.52777778" cy="111.25" r="1.51222033"/>
        <circle cx="45.52777778" cy="59.25" r="1.51222033"/>
        <circle cx="122.52777778" cy="59.25" r="1.51222033"/>
        <circle cx="122.52777778" cy="121.25" r="1.51222033"/>
        <circle cx="45.52777778" cy="121.25" r="1.51222033"/>
        <circle cx="21.52777778" cy="135.25" r="2"/>
        <circle cx="92.52777778" cy="149.25" r="2.23606798"/>
        <line x1="133.52777778" y1="26.25" x2="162.52777778" y2="26.25"/>
        <line x1="133.52777778" y1="16.25" x2="133.52777778" y2="26.25"/>
        <path d="M133.52777778,16.25 A4.52769257,4.52769257 0 0,0 129.52777778,11.25 "/>
    </g>
</svg>
