999
dxfrw 0.6.3
  0
SECTION
  2
HEADER
  9
$ACADVER
  1
AC1021
  9
$DWGCODEPAGE
  3
ANSI_1252
  9
$INSBASE
 10
0
 20
0
 30
0
  9
$EXTMIN
 10
-17.52777777777809
 20
-151.2500000000001
 30
0
  9
$EXTMAX
 10
172.3611111111112
 20
11.25
 30
0
  9
$LIMMIN
 10
0
 20
0
  9
$LIMMAX
 10
12
 20
9
  9
$ORTHOMODE
 70
    0
  9
$REGENMODE
 70
    1
  9
$FILLMODE
 70
    1
  9
$QTEXTMODE
 70
    0
  9
$MIRRTEXT
 70
    1
  9
$LTSCALE
 40
1
  9
$ATTMODE
 70
    1
  9
$TEXTSIZE
 40
0.2
  9
$TRACEWID
 40
0.05
  9
$TEXTSTYLE
  7
Standard
  9
$CLAYER
  8
0
  9
$CELTYPE
  6
ByLayer
  9
$CECOLOR
 62
  178
  9
$CELTSCALE
 40
1
  9
$DISPSILH
 70
    0
  9
$DIMSCALE
 40
1
  9
$DIMASZ
 40
2.5
  9
$DIMEXO
 40
0.625
  9
$DIMDLI
 40
5
  9
$DIMRND
 40
0
  9
$DIMDLE
 40
0
  9
$DIMEXE
 40
1.25
  9
$DIMTP
 40
0
  9
$DIMTM
 40
0
  9
$DIMTXT
 40
2.5
  9
$DIMCEN
 40
0.09
  9
$DIMTSZ
 40
0
  9
$DIMTOL
 70
    0
  9
$DIMLIM
 70
    0
  9
$DIMTIH
 70
    1
  9
$DIMTOH
 70
    1
  9
$DIMSE1
 70
    0
  9
$DIMSE2
 70
    0
  9
$DIMTAD
 70
    0
  9
$DIMZIN
 70
    8
  9
$DIMBLK
  1

  9
$DIMASO
 70
    1
  9
$DIMSHO
 70
    1
  9
$DIMPOST
  1

  9
$DIMAPOST
  1

  9
$DIMALT
 70
    0
  9
$DIMALTD
 70
    2
  9
$DIMALTF
 40
25.4
  9
$DIMLFAC
 40
1
  9
$DIMTOFL
 70
    0
  9
$DIMTVP
 40
0
  9
$DIMTIX
 70
    0
  9
$DIMSOXD
 70
    0
  9
$DIMSAH
 70
    0
  9
$DIMBLK1
  1

  9
$DIMBLK2
  1

  9
$DIMSTYLE
  2
Standard
  9
$DIMCLRD
 70
  144
  9
$DIMCLRE
 70
  144
  9
$DIMCLRT
 70
  144
  9
$DIMTFAC
 40
1
  9
$DIMGAP
 40
0.625
  9
$DIMJUST
 70
    0
  9
$DIMSD1
 70
    0
  9
$DIMSD2
 70
    0
  9
$DIMTOLJ
 70
    1
  9
$DIMTZIN
 70
    0
  9
$DIMALTZ
 70
    0
  9
$DIMALTTZ
 70
    0
  9
$DIMUPT
 70
    0
  9
$DIMDEC
 70
    4
  9
$DIMTDEC
 70
    4
  9
$DIMALTU
 70
    2
  9
$DIMALTTD
 70
    2
  9
$DIMTXSTY
  7
standard
  9
$DIMAUNIT
 70
    0
  9
$DIMADEC
 70
    0
  9
$DIMALTRND
 40
0
  9
$DIMAZIN
 70
    2
  9
$DIMDSEP
 70
    0
  9
$DIMATFIT
 70
    3
  9
$DIMFRAC
 70
    0
  9
$DIMLDRBLK
  1

  9
$DIMLUNIT
 70
    2
  9
$DIMLWD
 70
   -2
  9
$DIMLWE
 70
   -2
  9
$DIMTMOVE
 70
    0
  9
$DIMFXL
 40
1
  9
$DIMFXLON
 70
    0
  9
$DIMJOGANG
 40
0.7853981633974483
  9
$DIMTFILL
 70
    0
  9
$DIMTFILLCLR
 70
    0
  9
$DIMARCSYM
 70
    0
  9
$DIMLTYPE
  6

  9
$DIMLTEX1
  6

  9
$DIMLTEX2
  6

  9
$LUNITS
 70
    2
  9
$LUPREC
 70
    4
  9
$SKETCHINC
 40
0.1
  9
$FILLETRAD
 40
0.5
  9
$AUNITS
 70
    0
  9
$AUPREC
 70
    0
  9
$MENU
  1
.
  9
$ELEVATION
 40
0
  9
$PELEVATION
 40
0
  9
$THICKNESS
 40
0
  9
$LIMCHECK
 70
    0
  9
$CHAMFERA
 40
0
  9
$CHAMFERB
 40
0
  9
$CHAMFERC
 40
0
  9
$CHAMFERD
 40
0
  9
$SKPOLY
 70
    0
  9
$USRTIMER
 70
    1
  9
$ANGBASE
 50
0
  9
$ANGDIR
 70
    0
  9
$PDMODE
 70
    0
  9
$PDSIZE
 40
0
  9
$PLINEWID
 40
0
  9
$SPLFRAME
 70
    0
  9
$SPLINETYPE
 70
    6
  9
$SPLINESEGS
 70
    8
  9
$HANDSEED
  5
20000
  9
$SURFTAB1
 70
    6
  9
$SURFTAB2
 70
    6
  9
$SURFTYPE
 70
    6
  9
$SURFU
 70
    6
  9
$SURFV
 70
    6
  9
$UCSBASE
  2

  9
$UCSNAME
  2

  9
$UCSORG
 10
0
 20
0
 30
0
  9
$UCSXDIR
 10
1
 20
0
 30
0
  9
$UCSYDIR
 10
0
 20
1
 30
0
  9
$UCSORTHOREF
  2

  9
$UCSORTHOVIEW
 70
    0
  9
$UCSORGTOP
 10
0
 20
0
 30
0
  9
$UCSORGBOTTOM
 10
0
 20
0
 30
0
  9
$UCSORGLEFT
 10
0
 20
0
 30
0
  9
$UCSORGRIGHT
 10
0
 20
0
 30
0
  9
$UCSORGFRONT
 10
0
 20
0
 30
0
  9
$UCSORGBACK
 10
0
 20
0
 30
0
  9
$PUCSBASE
  2

  9
$PUCSNAME
  2

  9
$PUCSORG
 10
0
 20
0
 30
0
  9
$PUCSXDIR
 10
1
 20
0
 30
0
  9
$PUCSYDIR
 10
0
 20
1
 30
0
  9
$PUCSORTHOREF
  2

  9
$PUCSORTHOVIEW
 70
    0
  9
$PUCSORGTOP
 10
0
 20
0
 30
0
  9
$PUCSORGBOTTOM
 10
0
 20
0
 30
0
  9
$PUCSORGLEFT
 10
0
 20
0
 30
0
  9
$PUCSORGRIGHT
 10
0
 20
0
 30
0
  9
$PUCSORGFRONT
 10
0
 20
0
 30
0
  9
$PUCSORGBACK
 10
0
 20
0
 30
0
  9
$USERI1
 70
    0
  9
$USERI2
 70
    0
  9
$USERI3
 70
    0
  9
$USERI4
 70
    0
  9
$USERI5
 70
    0
  9
$USERR1
 40
0
  9
$USERR2
 40
0
  9
$USERR3
 40
0
  9
$USERR4
 40
0
  9
$USERR5
 40
0
  9
$WORLDVIEW
 70
    1
  9
$SHADEDGE
 70
    3
  9
$SHADEDIF
 70
   70
  9
$TILEMODE
 70
    1
  9
$MAXACTVP
 70
   64
  9
$PINSBASE
 10
60.36410256410278
 20
184.6923076923077
 30
0
  9
$PLIMCHECK
 70
    0
  9
$PEXTMIN
 10
0
 20
0
 30
0
  9
$PEXTMAX
 10
0
 20
0
 30
0
  9
$GRIDMODE
 70
    1
  9
$SNAPSTYLE
 70
    0
  9
$GRIDUNIT
 10
0
 20
0
  9
$PLIMMIN
 10
0
 20
0
  9
$PLIMMAX
 10
297
 20
210
  9
$UNITMODE
 70
    0
  9
$VISRETAIN
 70
    1
  9
$PLINEGEN
 70
    0
  9
$PSLTSCALE
 70
    1
  9
$TREEDEPTH
 70
 3020
  9
$CMLSTYLE
  2
Standard
  9
$CMLJUST
 70
    0
  9
$CMLSCALE
 40
1
  9
$PROXYGRAPHICS
 70
    1
  9
$MEASUREMENT
 70
    1
  9
$CELWEIGHT
370
   -1
  9
$ENDCAPS
280
    0
  9
$JOINSTYLE
280
    0
  9
$LWDISPLAY
290
    0
  9
$INSUNITS
 70
    4
  9
$HYPERLINKBASE
  1

  9
$STYLESHEET
  1

  9
$XEDIT
290
    1
  9
$CEPSNTYPE
380
    0
  9
$PSTYLEMODE
290
    1
  9
$EXTNAMES
290
    1
  9
$PSVPSCALE
 40
1
  9
$OLESTARTUP
290
    0
  9
$SORTENTS
280
  127
  9
$INDEXCTL
280
    0
  9
$HIDETEXT
280
    1
  9
$XCLIPFRAME
290
    2
  9
$HALOGAP
280
    0
  9
$OBSCOLOR
 70
  257
  9
$OBSLTYPE
280
    0
  9
$INTERSECTIONDISPLAY
280
    0
  9
$INTERSECTIONCOLOR
 70
  257
  9
$DIMASSOC
280
    2
  9
$PROJECTNAME
  1

  9
$CAMERADISPLAY
290
    0
  9
$LENSLENGTH
 40
50
  9
$CAMERAHEIGHT
 40
0
  9
$STEPSPERSEC
 40
2
  9
$STEPSIZE
 40
6
  9
$3DDWFPREC
 40
2
  9
$PSOLWIDTH
 40
0.25
  9
$PSOLHEIGHT
 40
4
  9
$LOFTANG1
 40
1.570796326794897
  9
$LOFTANG2
 40
1.570796326794897
  9
$LOFTMAG1
 40
0
  9
$LOFTMAG2
 40
0
  9
$LOFTPARAM
 70
    7
  9
$LOFTNORMALS
280
    1
  9
$LATITUDE
 40
37.795
  9
$LONGITUDE
 40
-122.394
  9
$NORTHDIRECTION
 40
0
  9
$TIMEZONE
 70
-8000
  9
$LIGHTGLYPHDISPLAY
280
    1
  9
$TILEMODELIGHTSYNCH
280
    1
  9
$SOLIDHIST
280
    0
  9
$SHOWHIST
280
    1
  9
$DWFFRAME
280
    2
  9
$DGNFRAME
280
    2
  9
$REALWORLDSCALE
290
    1
  9
$INTERFERECOLOR
 62
  256
  9
$CSHADOW
280
    0
  9
$SHADOWPLANELOCATION
 40
0
  0
ENDSEC
  0
SECTION
  2
CLASSES
  0
ENDSEC
  0
SECTION
  2
TABLES
  0
TABLE
  2
VPORT
  5
8
330
0
100
AcDbSymbolTable
 70
    1
  0
VPORT
  5
31
330
2
100
AcDbSymbolTableRecord
100
AcDbViewportTableRecord
  2
*ACTIVE
 70
    0
 10
0
 20
0
 11
1
 21
1
 12
63.81348423958697
 22
-31.96223210608878
 13
0
 23
0
 14
10
 24
10
 15
10
 25
10
 16
0
 26
0
 36
1
 17
0
 27
0
 37
0
 40
88.93195136925628
 41
1.792013311148086
 42
50
 43
0
 44
0
 50
0
 51
0
 71
    0
 72
  100
 73
    1
 74
    3
 75
    0
 76
    1
 77
    0
 78
    0
281
    0
 65
    1
110
0
120
0
130
0
111
1
121
0
131
0
112
0
122
1
132
0
 79
    0
146
0
348
10020
 60
    7
 61
    5
292
1
282
    1
141
0
142
0
 63
  250
421
3358443
  0
ENDTAB
  0
TABLE
  2
LTYPE
  5
5
330
0
100
AcDbSymbolTable
 70
    4
  0
LTYPE
  5
14
330
5
100
AcDbSymbolTableRecord
100
AcDbLinetypeTableRecord
  2
ByBlock
 70
    0
  3

 72
   65
 73
    0
 40
0
  0
LTYPE
  5
15
330
5
100
AcDbSymbolTableRecord
100
AcDbLinetypeTableRecord
  2
ByLayer
 70
    0
  3

 72
   65
 73
    0
 40
0
  0
LTYPE
  5
16
330
5
100
AcDbSymbolTableRecord
100
AcDbLinetypeTableRecord
  2
Continuous
 70
    0
  3
Solid line
 72
   65
 73
    0
 40
0
  0
LTYPE
  5
32
330
5
100
AcDbSymbolTableRecord
100
AcDbLinetypeTableRecord
  2
DOT
 70
    0
  3
Dot . . . . . . . . . . . . . . . . . . . . . .
 72
   65
 73
    2
 40
6.35
 49
0
 74
    0
 49
-6.35
 74
    0
  0
LTYPE
  5
33
330
5
100
AcDbSymbolTableRecord
100
AcDbLinetypeTableRecord
  2
DOTTINY
 70
    0
  3
Dot (.15x) .....................................
 72
   65
 73
    2
 40
0.9525
 49
0
 74
    0
 49
-0.9525
 74
    0
  0
LTYPE
  5
34
330
5
100
AcDbSymbolTableRecord
100
AcDbLinetypeTableRecord
  2
DOT2
 70
    0
  3
Dot (.5x) .....................................
 72
   65
 73
    2
 40
3.175
 49
0
 74
    0
 49
-3.175
 74
    0
  0
LTYPE
  5
35
330
5
100
AcDbSymbolTableRecord
100
AcDbLinetypeTableRecord
  2
DOTX2
 70
    0
  3
Dot (2x) .  .  .  .  .  .  .  .  .  .  .  .  .
 72
   65
 73
    2
 40
12.7
 49
0
 74
    0
 49
-12.7
 74
    0
  0
LTYPE
  5
36
330
5
100
AcDbSymbolTableRecord
100
AcDbLinetypeTableRecord
  2
DASHED
 70
    0
  3
Dashed _ _ _ _ _ _ _ _ _ _ _ _ _ _ _ _ _
 72
   65
 73
    2
 40
19.05
 49
12.7
 74
    0
 49
-6.35
 74
    0
  0
LTYPE
  5
37
330
5
100
AcDbSymbolTableRecord
100
AcDbLinetypeTableRecord
  2
DASHEDTINY
 70
    0
  3
Dashed (.15x) _ _ _ _ _ _ _ _ _ _ _ _ _ _ _ _ _
 72
   65
 73
    2
 40
2.8575
 49
1.905
 74
    0
 49
-0.9525
 74
    0
  0
LTYPE
  5
38
330
5
100
AcDbSymbolTableRecord
100
AcDbLinetypeTableRecord
  2
DASHED2
 70
    0
  3
Dashed (.5x) _ _ _ _ _ _ _ _ _ _ _ _ _ _ _ _ _
 72
   65
 73
    2
 40
9.524999999999999
 49
6.35
 74
    0
 49
-3.175
 74
    0
  0
LTYPE
  5
39
330
5
100
AcDbSymbolTableRecord
100
AcDbLinetypeTableRecord
  2
DASHEDX2
 70
    0
  3
Dashed (2x) ____  ____  ____  ____  ____  ___
 72
   65
 73
    2
 40
38.09999999999999
 49
25.4
 74
    0
 49
-12.7
 74
    0
  0
LTYPE
  5
3A
330
5
100
AcDbSymbolTableRecord
100
AcDbLinetypeTableRecord
  2
DASHDOT
 70
    0
  3
Dash dot __ . __ . __ . __ . __ . __ . __ . __
 72
   65
 73
    4
 40
25.4
 49
12.7
 74
    0
 49
-6.35
 74
    0
 49
0
 74
    0
 49
-6.35
 74
    0
  0
LTYPE
  5
3B
330
5
100
AcDbSymbolTableRecord
100
AcDbLinetypeTableRecord
  2
DASHDOTTINY
 70
    0
  3
Dash dot (.15x) _._._._._._._._._._._._._._._.
 72
   65
 73
    4
 40
3.81
 49
1.905
 74
    0
 49
-0.9525
 74
    0
 49
0
 74
    0
 49
-0.9525
 74
    0
  0
LTYPE
  5
3C
330
5
100
AcDbSymbolTableRecord
100
AcDbLinetypeTableRecord
  2
DASHDOT2
 70
    0
  3
Dash dot (.5x) _._._._._._._._._._._._._._._.
 72
   65
 73
    4
 40
12.7
 49
6.35
 74
    0
 49
-3.175
 74
    0
 49
0
 74
    0
 49
-3.175
 74
    0
  0
LTYPE
  5
3D
330
5
100
AcDbSymbolTableRecord
100
AcDbLinetypeTableRecord
  2
DASHDOTX2
 70
    0
  3
Dash dot (2x) ____  .  ____  .  ____  .  ___
 72
   65
 73
    4
 40
50.8
 49
25.4
 74
    0
 49
-12.7
 74
    0
 49
0
 74
    0
 49
-12.7
 74
    0
  0
LTYPE
  5
3E
330
5
100
AcDbSymbolTableRecord
100
AcDbLinetypeTableRecord
  2
DIVIDE
 70
    0
  3
Divide ____ . . ____ . . ____ . . ____ . . ____
 72
   65
 73
    6
 40
31.75
 49
12.7
 74
    0
 49
-6.35
 74
    0
 49
0
 74
    0
 49
-6.35
 74
    0
 49
0
 74
    0
 49
-6.35
 74
    0
  0
LTYPE
  5
3F
330
5
100
AcDbSymbolTableRecord
100
AcDbLinetypeTableRecord
  2
DIVIDETINY
 70
    0
  3
Divide (.15x) __..__..__..__..__..__..__..__.._
 72
   65
 73
    6
 40
4.7625
 49
1.905
 74
    0
 49
-0.9525
 74
    0
 49
0
 74
    0
 49
-0.9525
 74
    0
 49
0
 74
    0
 49
-0.9525
 74
    0
  0
LTYPE
  5
40
330
5
100
AcDbSymbolTableRecord
100
AcDbLinetypeTableRecord
  2
DIVIDE2
 70
    0
  3
Divide (.5x) __..__..__..__..__..__..__..__.._
 72
   65
 73
    6
 40
15.875
 49
6.35
 74
    0
 49
-3.175
 74
    0
 49
0
 74
    0
 49
-3.175
 74
    0
 49
0
 74
    0
 49
-3.175
 74
    0
  0
LTYPE
  5
41
330
5
100
AcDbSymbolTableRecord
100
AcDbLinetypeTableRecord
  2
DIVIDEX2
 70
    0
  3
Divide (2x) ________  .  .  ________  .  .  _
 72
   65
 73
    6
 40
63.5
 49
25.4
 74
    0
 49
-12.7
 74
    0
 49
0
 74
    0
 49
-12.7
 74
    0
 49
0
 74
    0
 49
-12.7
 74
    0
  0
LTYPE
  5
42
330
5
100
AcDbSymbolTableRecord
100
AcDbLinetypeTableRecord
  2
BORDER
 70
    0
  3
Border __ __ . __ __ . __ __ . __ __ . __ __ .
 72
   65
 73
    6
 40
44.45
 49
12.7
 74
    0
 49
-6.35
 74
    0
 49
12.7
 74
    0
 49
-6.35
 74
    0
 49
0
 74
    0
 49
-6.35
 74
    0
  0
LTYPE
  5
43
330
5
100
AcDbSymbolTableRecord
100
AcDbLinetypeTableRecord
  2
BORDERTINY
 70
    0
  3
Border (.15x) __.__.__.__.__.__.__.__.__.__.__.
 72
   65
 73
    6
 40
6.6675
 49
1.905
 74
    0
 49
-0.9525
 74
    0
 49
1.905
 74
    0
 49
-0.9525
 74
    0
 49
0
 74
    0
 49
-0.9525
 74
    0
  0
LTYPE
  5
44
330
5
100
AcDbSymbolTableRecord
100
AcDbLinetypeTableRecord
  2
BORDER2
 70
    0
  3
Border (.5x) __.__.__.__.__.__.__.__.__.__.__.
 72
   65
 73
    6
 40
22.225
 49
6.35
 74
    0
 49
-3.175
 74
    0
 49
6.35
 74
    0
 49
-3.175
 74
    0
 49
0
 74
    0
 49
-3.175
 74
    0
  0
LTYPE
  5
45
330
5
100
AcDbSymbolTableRecord
100
AcDbLinetypeTableRecord
  2
BORDERX2
 70
    0
  3
Border (2x) ____  ____  .  ____  ____  .  ___
 72
   65
 73
    6
 40
88.89999999999999
 49
25.4
 74
    0
 49
-12.7
 74
    0
 49
25.4
 74
    0
 49
-12.7
 74
    0
 49
0
 74
    0
 49
-12.7
 74
    0
  0
LTYPE
  5
46
330
5
100
AcDbSymbolTableRecord
100
AcDbLinetypeTableRecord
  2
CENTER
 70
    0
  3
Center ____ _ ____ _ ____ _ ____ _ ____ _ ____
 72
   65
 73
    4
 40
50.8
 49
31.75
 74
    0
 49
-6.35
 74
    0
 49
6.35
 74
    0
 49
-6.35
 74
    0
  0
LTYPE
  5
47
330
5
100
AcDbSymbolTableRecord
100
AcDbLinetypeTableRecord
  2
CENTERTINY
 70
    0
  3
Center (.15x) ___ _ ___ _ ___ _ ___ _ ___ _ ___
 72
   65
 73
    4
 40
7.619999999999999
 49
4.7625
 74
    0
 49
-0.9525
 74
    0
 49
0.9525
 74
    0
 49
-0.9525
 74
    0
  0
LTYPE
  5
48
330
5
100
AcDbSymbolTableRecord
100
AcDbLinetypeTableRecord
  2
CENTER2
 70
    0
  3
Center (.5x) ___ _ ___ _ ___ _ ___ _ ___ _ ___
 72
   65
 73
    4
 40
28.575
 49
19.05
 74
    0
 49
-3.175
 74
    0
 49
3.175
 74
    0
 49
-3.175
 74
    0
  0
LTYPE
  5
49
330
5
100
AcDbSymbolTableRecord
100
AcDbLinetypeTableRecord
  2
CENTERX2
 70
    0
  3
Center (2x) ________  __  ________  __  _____
 72
   65
 73
    4
 40
101.6
 49
63.5
 74
    0
 49
-12.7
 74
    0
 49
12.7
 74
    0
 49
-12.7
 74
    0
  0
ENDTAB
  0
TABLE
  2
LAYER
  5
2
330
0
100
AcDbSymbolTable
 70
    1
  0
LAYER
  5
10
330
2
100
AcDbSymbolTableRecord
100
AcDbLayerTableRecord
  2
0
 70
    0
 62
  255
  6
CONTINUOUS
370
   25
390
F
  0
ENDTAB
  0
TABLE
  2
STYLE
  5
3
330
0
100
AcDbSymbolTable
 70
    3
  0
STYLE
  5
4A
330
2
100
AcDbSymbolTableRecord
100
AcDbTextStyleTableRecord
  2
Standard
 70
    0
 40
0
 41
1
 50
0
 71
    0
 42
1
  3
txt
  4

  0
ENDTAB
  0
TABLE
  2
VIEW
  5
6
330
0
100
AcDbSymbolTable
 70
    0
  0
ENDTAB
  0
TABLE
  2
UCS
  5
7
330
0
100
AcDbSymbolTable
 70
    0
  0
ENDTAB
  0
TABLE
  2
APPID
  5
9
330
0
100
AcDbSymbolTable
 70
    1
  0
APPID
  5
12
330
9
100
AcDbSymbolTableRecord
100
AcDbRegAppTableRecord
  2
ACAD
 70
    0
  0
APPID
  5
4B
330
9
100
AcDbSymbolTableRecord
100
AcDbRegAppTableRecord
  2
LibreCad
 70
    0
  0
ENDTAB
  0
TABLE
  2
DIMSTYLE
  5
A
330
0
100
AcDbSymbolTable
 70
    1
100
AcDbDimStyleTable
 71
    1
  0
DIMSTYLE
105
4C
330
A
100
AcDbSymbolTableRecord
100
AcDbDimStyleTableRecord
  2
Standard
 70
    0
 40
1
 41
2.5
 42
0.625
 43
0.38
 44
1.25
 45
0
 46
0
 47
0
 48
0
 49
1
140
2.5
141
0.09
142
0
143
25.4
144
1
145
0
146
1
147
0.625
148
0
 71
    0
 72
    0
 73
    1
 74
    1
 75
    0
 76
    0
 77
    0
 78
    8
 79
    2
170
    0
171
    2
172
    0
173
    0
174
    0
175
    0
176
  144
177
  144
178
  144
179
    0
271
    4
272
    4
273
    2
274
    2
275
    0
276
    0
277
    2
278
    0
279
    0
280
    0
281
    0
282
    0
283
    1
284
    0
285
    0
286
    0
288
    0
289
    3
340
standard
341

371
   -2
372
   -2
  0
ENDTAB
  0
TABLE
  2
BLOCK_RECORD
  5
1
330
0
100
AcDbSymbolTable
 70
    2
  0
BLOCK_RECORD
  5
1F
330
1
100
AcDbSymbolTableRecord
100
AcDbBlockTableRecord
  2
*Model_Space
 70
    0
280
    1
281
    0
  0
BLOCK_RECORD
  5
1E
330
1
100
AcDbSymbolTableRecord
100
AcDbBlockTableRecord
  2
*Paper_Space
 70
    0
280
    1
281
    0
  0
BLOCK_RECORD
  5
4D
330
1
100
AcDbSymbolTableRecord
100
AcDbBlockTableRecord
  2
*D6
 70
    0
280
    1
281
    0
  0
BLOCK_RECORD
  5
50
330
1
100
AcDbSymbolTableRecord
100
AcDbBlockTableRecord
  2
*D18
 70
    0
280
    1
281
    0
  0
BLOCK_RECORD
  5
53
330
1
100
AcDbSymbolTableRecord
100
AcDbBlockTableRecord
  2
*D17
 70
    0
280
    1
281
    0
  0
BLOCK_RECORD
  5
56
330
1
100
AcDbSymbolTableRecord
100
AcDbBlockTableRecord
  2
*D9
 70
    0
280
    1
281
    0
  0
BLOCK_RECORD
  5
59
330
1
100
AcDbSymbolTableRecord
100
AcDbBlockTableRecord
  2
*D14
 70
    0
280
    1
281
    0
  0
BLOCK_RECORD
  5
5C
330
1
100
AcDbSymbolTableRecord
100
AcDbBlockTableRecord
  2
*D19
 70
    0
280
    1
281
    0
  0
BLOCK_RECORD
  5
5F
330
1
100
AcDbSymbolTableRecord
100
AcDbBlockTableRecord
  2
*D8
 70
    0
280
    1
281
    0
  0
BLOCK_RECORD
  5
62
330
1
100
AcDbSymbolTableRecord
100
AcDbBlockTableRecord
  2
*D11
 70
    0
280
    1
281
    0
  0
BLOCK_RECORD
  5
65
330
1
100
AcDbSymbolTableRecord
100
AcDbBlockTableRecord
  2
*D13
 70
    0
280
    1
281
    0
  0
BLOCK_RECORD
  5
68
330
1
100
AcDbSymbolTableRecord
100
AcDbBlockTableRecord
  2
*D16
 70
    0
280
    1
281
    0
  0
BLOCK_RECORD
  5
6B
330
1
100
AcDbSymbolTableRecord
100
AcDbBlockTableRecord
  2
*D5
 70
    0
280
    1
281
    0
  0
BLOCK_RECORD
  5
6E
330
1
100
AcDbSymbolTableRecord
100
AcDbBlockTableRecord
  2
*D15
 70
    0
280
    1
281
    0
  0
BLOCK_RECORD
  5
71
330
1
100
AcDbSymbolTableRecord
100
AcDbBlockTableRecord
  2
*D7
 70
    0
280
    1
281
    0
  0
BLOCK_RECORD
  5
74
330
1
100
AcDbSymbolTableRecord
100
AcDbBlockTableRecord
  2
*D1
 70
    0
280
    1
281
    0
  0
BLOCK_RECORD
  5
77
330
1
100
AcDbSymbolTableRecord
100
AcDbBlockTableRecord
  2
*D4
 70
    0
280
    1
281
    0
  0
BLOCK_RECORD
  5
7A
330
1
100
AcDbSymbolTableRecord
100
AcDbBlockTableRecord
  2
*D12
 70
    0
280
    1
281
    0
  0
BLOCK_RECORD
  5
7D
330
1
100
AcDbSymbolTableRecord
100
AcDbBlockTableRecord
  2
*D3
 70
    0
280
    1
281
    0
  0
BLOCK_RECORD
  5
80
330
1
100
AcDbSymbolTableRecord
100
AcDbBlockTableRecord
  2
*D20
 70
    0
280
    1
281
    0
  0
BLOCK_RECORD
  5
83
330
1
100
AcDbSymbolTableRecord
100
AcDbBlockTableRecord
  2
*D10
 70
    0
280
    1
281
    0
  0
BLOCK_RECORD
  5
86
330
1
100
AcDbSymbolTableRecord
100
AcDbBlockTableRecord
  2
*D2
 70
    0
280
    1
281
    0
  0
ENDTAB
  0
ENDSEC
  0
SECTION
  2
BLOCKS
  0
BLOCK
  5
20
330
1F
100
AcDbEntity
  8
0
100
AcDbBlockBegin
  2
*Model_Space
 70
    0
 10
0
 20
0
 30
0
  3
*Model_Space
  1

  0
ENDBLK
  5
21
330
1F
100
AcDbEntity
  8
0
100
AcDbBlockEnd
  0
BLOCK
  5
1C
330
1B
100
AcDbEntity
  8
0
100
AcDbBlockBegin
  2
*Paper_Space
 70
    0
 10
0
 20
0
 30
0
  3
*Paper_Space
  1

  0
ENDBLK
  5
1D
330
1F
100
AcDbEntity
  8
0
100
AcDbBlockEnd
  0
BLOCK
  5
4E
330
4D
100
AcDbEntity
  8
0
100
AcDbBlockBegin
  2
*D6
 70
    1
 10
0
 20
0
  3
*D6
  1

  0
LINE
  5
89
100
AcDbEntity
  8
0
  6
ByBlock
 62
  144
370
   -2
100
AcDbLine
 10
111
 20
-24
 11
104.375
 21
-24
  0
SOLID
  5
8A
100
AcDbEntity
  8
0
  6
ByBlock
 62
  144
370
   -2
100
AcDbTrace
 10
111
 20
-24
 30
0
 11
108.5
 21
-24.41628465777284
 31
0
 12
108.5
 22
-23.58371534222716
 32
0
 13
108.5
 23
-23.58371534222716
 33
0
  0
SOLID
  5
8B
100
AcDbEntity
  8
0
  6
ByBlock
 62
  144
370
   -2
100
AcDbTrace
 10
94
 20
-24
 30
0
 11
96.5
 21
-23.58371534222716
 31
0
 12
96.5
 22
-24.41628465777284
 32
0
 13
96.5
 23
-24.41628465777284
 33
0
  0
LINE
  5
8C
100
AcDbEntity
  8
0
  6
ByBlock
 62
  144
370
   -2
100
AcDbLine
 10
100.625
 20
-24
 11
94
 21
-24
  0
MTEXT
  5
8D
100
AcDbEntity
  8
0
  6
CONTINUOUS
 62
  144
370
   -2
100
AcDbMText
 10
102.5
 20
-24
 30
0
 40
2.5
 41
2.5
 71
    5
 72
    1
  1
17
  7
standard
210
0
220
0
230
1
 50
0
 73
    2
 44
1
  0
LINE
  5
8E
100
AcDbEntity
  8
0
  6
ByBlock
 62
  144
370
   -2
100
AcDbLine
 10
111
 20
-7.625
 11
111
 21
-25.25
  0
LINE
  5
8F
100
AcDbEntity
  8
0
  6
ByBlock
 62
  144
370
   -2
100
AcDbLine
 10
94
 20
-24.625
 11
94
 21
-25.25
  0
ENDBLK
  5
4F
330
4D
100
AcDbEntity
  8
0
100
AcDbBlockEnd
  0
BLOCK
  5
51
330
50
100
AcDbEntity
  8
0
100
AcDbBlockBegin
  2
*D18
 70
    1
 10
0
 20
0
  3
*D18
  1

  0
LINE
  5
90
100
AcDbEntity
  8
0
  6
ByBlock
 62
  144
370
   -2
100
AcDbLine
 10
77
 20
10
 11
94.34722222222214
 21
10
  0
SOLID
  5
91
100
AcDbEntity
  8
0
  6
ByBlock
 62
  144
370
   -2
100
AcDbTrace
 10
77
 20
10
 30
0
 11
79.5
 21
10.41628465777284
 31
0
 12
79.5
 22
9.583715342227158
 32
0
 13
79.5
 23
9.583715342227158
 33
0
  0
SOLID
  5
92
100
AcDbEntity
  8
0
  6
ByBlock
 62
  144
370
   -2
100
AcDbTrace
 10
116
 20
10
 30
0
 11
113.5
 21
9.58371534222716
 31
0
 12
113.5
 22
10.41628465777284
 32
0
 13
113.5
 23
10.41628465777284
 33
0
  0
LINE
  5
93
100
AcDbEntity
  8
0
  6
ByBlock
 62
  144
370
   -2
100
AcDbLine
 10
98.65277777777786
 20
10
 11
116
 21
10
  0
MTEXT
  5
94
100
AcDbEntity
  8
0
  6
CONTINUOUS
 62
  144
370
   -2
100
AcDbMText
 10
96.5
 20
10
 30
0
 40
2.5
 41
3.055555555555711
 71
    5
 72
    1
  1
39
  7
standard
210
0
220
0
230
1
 50
0
 73
    2
 44
1
  0
LINE
  5
95
100
AcDbEntity
  8
0
  6
ByBlock
 62
  144
370
   -2
100
AcDbLine
 10
77
 20
1.625
 11
77
 21
11.25
  0
LINE
  5
96
100
AcDbEntity
  8
0
  6
ByBlock
 62
  144
370
   -2
100
AcDbLine
 10
116
 20
0.625
 11
116
 21
11.25
  0
ENDBLK
  5
52
330
50
100
AcDbEntity
  8
0
100
AcDbBlockEnd
  0
BLOCK
  5
54
330
53
100
AcDbEntity
  8
0
100
AcDbBlockBegin
  2
*D17
 70
    1
 10
0
 20
0
  3
*D17
  1

  0
LINE
  5
97
100
AcDbEntity
  8
0
  6
ByBlock
 62
  144
370
   -2
100
AcDbLine
 10
170
 20
0
 11
170
 21
-70.625
  0
SOLID
  5
98
100
AcDbEntity
  8
0
  6
ByBlock
 62
  144
370
   -2
100
AcDbTrace
 10
170
 20
0
 30
0
 11
170.4162846577728
 21
-2.5
 31
0
 12
169.5837153422272
 22
-2.5
 32
0
 13
169.5837153422272
 23
-2.5
 33
0
  0
SOLID
  5
99
100
AcDbEntity
  8
0
  6
ByBlock
 62
  144
370
   -2
100
AcDbTrace
 10
170
 20
-145
 30
0
 11
169.5837153422272
 21
-142.5
 31
0
 12
170.4162846577728
 22
-142.5
 32
0
 13
170.4162846577728
 23
-142.5
 33
0
  0
LINE
  5
9A
100
AcDbEntity
  8
0
  6
ByBlock
 62
  144
370
   -2
100
AcDbLine
 10
170
 20
-74.375
 11
170
 21
-145
  0
MTEXT
  5
9B
100
AcDbEntity
  8
0
  6
CONTINUOUS
 62
  144
370
   -2
100
AcDbMText
 10
170
 20
-72.5
 30
0
 40
2.5
 41
4.722222222222378
 71
    5
 72
    1
  1
145
  7
standard
210
0
220
0
230
1
 50
0
 73
    2
 44
1
  0
LINE
  5
9C
100
AcDbEntity
  8
0
  6
ByBlock
 62
  144
370
   -2
100
AcDbLine
 10
116.625
 20
0
 11
171.25
 21
0
  0
LINE
  5
9D
100
AcDbEntity
  8
0
  6
ByBlock
 62
  144
370
   -2
100
AcDbLine
 10
85.625
 20
-145
 11
171.25
 21
-145
  0
ENDBLK
  5
55
330
53
100
AcDbEntity
  8
0
100
AcDbBlockEnd
  0
BLOCK
  5
57
330
56
100
AcDbEntity
  8
0
100
AcDbBlockBegin
  2
*D9
 70
    1
 10
0
 20
0
  3
*D9
  1

  0
LINE
  5
9E
100
AcDbEntity
  8
0
  6
ByBlock
 62
  144
370
   -2
100
AcDbLine
 10
31
 20
-130
 11
31
 21
-125.375
  0
SOLID
  5
9F
100
AcDbEntity
  8
0
  6
ByBlock
 62
  144
370
   -2
100
AcDbTrace
 10
31
 20
-130
 30
0
 11
30.58371534222716
 21
-127.5
 31
0
 12
31.41628465777284
 22
-127.5
 32
0
 13
31.41628465777284
 23
-127.5
 33
0
  0
SOLID
  5
A0
100
AcDbEntity
  8
0
  6
ByBlock
 62
  144
370
   -2
100
AcDbTrace
 10
31
 20
-117
 30
0
 11
31.41628465777284
 21
-119.5
 31
0
 12
30.58371534222716
 22
-119.5
 32
0
 13
30.58371534222716
 23
-119.5
 33
0
  0
LINE
  5
A1
100
AcDbEntity
  8
0
  6
ByBlock
 62
  144
370
   -2
100
AcDbLine
 10
31
 20
-121.625
 11
31
 21
-117
  0
MTEXT
  5
A2
100
AcDbEntity
  8
0
  6
CONTINUOUS
 62
  144
370
   -2
100
AcDbMText
 10
31
 20
-123.5
 30
0
 40
2.5
 41
2.500000000000155
 71
    5
 72
    1
  1
13
  7
standard
210
0
220
0
230
1
 50
0
 73
    2
 44
1
  0
LINE
  5
A3
100
AcDbEntity
  8
0
  6
ByBlock
 62
  144
370
   -2
100
AcDbLine
 10
20.625
 20
-130
 11
32.25
 21
-130
  0
LINE
  5
A4
100
AcDbEntity
  8
0
  6
ByBlock
 62
  144
370
   -2
100
AcDbLine
 10
31.625
 20
-117
 11
32.25
 21
-117
  0
ENDBLK
  5
58
330
56
100
AcDbEntity
  8
0
100
AcDbBlockEnd
  0
BLOCK
  5
5A
330
59
100
AcDbEntity
  8
0
100
AcDbBlockBegin
  2
*D14
 70
    1
 10
0
 20
0
  3
*D14
  1

  0
LINE
  5
A5
100
AcDbEntity
  8
0
  6
ByBlock
 62
  144
370
   -2
100
AcDbLine
 10
38
 20
-43
 11
74.34722222222223
 21
-43
  0
SOLID
  5
A6
100
AcDbEntity
  8
0
  6
ByBlock
 62
  144
370
   -2
100
AcDbTrace
 10
38
 20
-43
 30
0
 11
40.5
 21
-42.58371534222716
 31
0
 12
40.5
 22
-43.41628465777284
 32
0
 13
40.5
 23
-43.41628465777284
 33
0
  0
SOLID
  5
A7
100
AcDbEntity
  8
0
  6
ByBlock
 62
  144
370
   -2
100
AcDbTrace
 10
115
 20
-43
 30
0
 11
112.5
 21
-43.41628465777284
 31
0
 12
112.5
 22
-42.58371534222716
 32
0
 13
112.5
 23
-42.58371534222716
 33
0
  0
LINE
  5
A8
100
AcDbEntity
  8
0
  6
ByBlock
 62
  144
370
   -2
100
AcDbLine
 10
78.65277777777777
 20
-43
 11
115
 21
-43
  0
MTEXT
  5
A9
100
AcDbEntity
  8
0
  6
CONTINUOUS
 62
  144
370
   -2
100
AcDbMText
 10
76.5
 20
-43
 30
0
 40
2.5
 41
3.055555555555556
 71
    5
 72
    1
  1
77
  7
standard
210
0
220
0
230
1
 50
0
 73
    2
 44
1
  0
LINE
  5
AA
100
AcDbEntity
  8
0
  6
ByBlock
 62
  144
370
   -2
100
AcDbLine
 10
38
 20
-46.375
 11
38
 21
-41.75
  0
LINE
  5
AB
100
AcDbEntity
  8
0
  6
ByBlock
 62
  144
370
   -2
100
AcDbLine
 10
115
 20
-46.375
 11
115
 21
-41.75
  0
ENDBLK
  5
5B
330
59
100
AcDbEntity
  8
0
100
AcDbBlockEnd
  0
BLOCK
  5
5D
330
5C
100
AcDbEntity
  8
0
100
AcDbBlockBegin
  2
*D19
 70
    1
 10
0
 20
0
  3
*D19
  1

  0
LINE
  5
AC
100
AcDbEntity
  8
0
  6
ByBlock
 62
  144
370
   -2
100
AcDbLine
 10
116
 20
10
 11
130.7083333333333
 21
10
  0
SOLID
  5
AD
100
AcDbEntity
  8
0
  6
ByBlock
 62
  144
370
   -2
100
AcDbTrace
 10
116
 20
10
 30
0
 11
118.5
 21
10.41628465777284
 31
0
 12
118.5
 22
9.583715342227158
 32
0
 13
118.5
 23
9.583715342227158
 33
0
  0
SOLID
  5
AE
100
AcDbEntity
  8
0
  6
ByBlock
 62
  144
370
   -2
100
AcDbTrace
 10
150
 20
10
 30
0
 11
147.5
 21
9.58371534222716
 31
0
 12
147.5
 22
10.41628465777284
 32
0
 13
147.5
 23
10.41628465777284
 33
0
  0
LINE
  5
AF
100
AcDbEntity
  8
0
  6
ByBlock
 62
  144
370
   -2
100
AcDbLine
 10
135.2916666666667
 20
10
 11
150
 21
10
  0
MTEXT
  5
B0
100
AcDbEntity
  8
0
  6
CONTINUOUS
 62
  144
370
   -2
100
AcDbMText
 10
133
 20
10
 30
0
 40
2.5
 41
3.333333333333488
 71
    5
 72
    1
  1
34
  7
standard
210
0
220
0
230
1
 50
0
 73
    2
 44
1
  0
LINE
  5
B1
100
AcDbEntity
  8
0
  6
ByBlock
 62
  144
370
   -2
100
AcDbLine
 10
116
 20
0.625
 11
116
 21
11.25
  0
LINE
  5
B2
100
AcDbEntity
  8
0
  6
ByBlock
 62
  144
370
   -2
100
AcDbLine
 10
150
 20
-13.375
 11
150
 21
11.25
  0
ENDBLK
  5
5E
330
5C
100
AcDbEntity
  8
0
100
AcDbBlockEnd
  0
BLOCK
  5
60
330
5F
100
AcDbEntity
  8
0
100
AcDbBlockBegin
  2
*D8
 70
    1
 10
0
 20
0
  3
*D8
  1

  0
LINE
  5
B3
100
AcDbEntity
  8
0
  6
ByBlock
 62
  144
370
   -2
100
AcDbLine
 10
140
 20
-120
 11
140
 21
-130.625
  0
SOLID
  5
B4
100
AcDbEntity
  8
0
  6
ByBlock
 62
  144
370
   -2
100
AcDbTrace
 10
140
 20
-120
 30
0
 11
140.4162846577728
 21
-122.5
 31
0
 12
139.5837153422272
 22
-122.5
 32
0
 13
139.5837153422272
 23
-122.5
 33
0
  0
SOLID
  5
B5
100
AcDbEntity
  8
0
  6
ByBlock
 62
  144
370
   -2
100
AcDbTrace
 10
140
 20
-145
 30
0
 11
139.5837153422272
 21
-142.5
 31
0
 12
140.4162846577728
 22
-142.5
 32
0
 13
140.4162846577728
 23
-142.5
 33
0
  0
LINE
  5
B6
100
AcDbEntity
  8
0
  6
ByBlock
 62
  144
370
   -2
100
AcDbLine
 10
140
 20
-134.375
 11
140
 21
-145
  0
MTEXT
  5
B7
100
AcDbEntity
  8
0
  6
CONTINUOUS
 62
  144
370
   -2
100
AcDbMText
 10
140
 20
-132.5
 30
0
 40
2.5
 41
3.055555555555711
 71
    5
 72
    1
  1
25
  7
standard
210
0
220
0
230
1
 50
0
 73
    2
 44
1
  0
LINE
  5
B8
100
AcDbEntity
  8
0
  6
ByBlock
 62
  144
370
   -2
100
AcDbLine
 10
139.375
 20
-120
 11
138.75
 21
-120
  0
LINE
  5
B9
100
AcDbEntity
  8
0
  6
ByBlock
 62
  144
370
   -2
100
AcDbLine
 10
139.375
 20
-145
 11
138.75
 21
-145
  0
ENDBLK
  5
61
330
5F
100
AcDbEntity
  8
0
100
AcDbBlockEnd
  0
BLOCK
  5
63
330
62
100
AcDbEntity
  8
0
100
AcDbBlockBegin
  2
*D11
 70
    1
 10
0
 20
0
  3
*D11
  1

  0
LINE
  5
BA
100
AcDbEntity
  8
0
  6
ByBlock
 62
  144
370
   -2
100
AcDbLine
 10
-2
 20
-150
 11
71.1527777777777
 21
-150
  0
SOLID
  5
BB
100
AcDbEntity
  8
0
  6
ByBlock
 62
  144
370
   -2
100
AcDbTrace
 10
-2
 20
-150
 30
0
 11
0.5
 21
-149.5837153422272
 31
0
 12
0.5
 22
-150.4162846577728
 32
0
 13
0.5
 23
-150.4162846577728
 33
0
  0
SOLID
  5
BC
100
AcDbEntity
  8
0
  6
ByBlock
 62
  144
370
   -2
100
AcDbTrace
 10
150
 20
-150
 30
0
 11
147.5
 21
-150.4162846577728
 31
0
 12
147.5
 22
-149.5837153422272
 32
0
 13
147.5
 23
-149.5837153422272
 33
0
  0
LINE
  5
BD
100
AcDbEntity
  8
0
  6
ByBlock
 62
  144
370
   -2
100
AcDbLine
 10
76.8472222222223
 20
-150
 11
150
 21
-150
  0
MTEXT
  5
BE
100
AcDbEntity
  8
0
  6
CONTINUOUS
 62
  144
370
   -2
100
AcDbMText
 10
74
 20
-150
 30
0
 40
2.5
 41
4.444444444444599
 71
    5
 72
    1
  1
152
  7
standard
210
0
220
0
230
1
 50
0
 73
    2
 44
1
  0
LINE
  5
BF
100
AcDbEntity
  8
0
  6
ByBlock
 62
  144
370
   -2
100
AcDbLine
 10
-2
 20
-130.625
 11
-2
 21
-151.25
  0
LINE
  5
C0
100
AcDbEntity
  8
0
  6
ByBlock
 62
  144
370
   -2
100
AcDbLine
 10
150
 20
-120.625
 11
150
 21
-151.25
  0
ENDBLK
  5
64
330
62
100
AcDbEntity
  8
0
100
AcDbBlockEnd
  0
BLOCK
  5
66
330
65
100
AcDbEntity
  8
0
100
AcDbBlockBegin
  2
*D13
 70
    1
 10
0
 20
0
  3
*D13
  1

  0
LINE
  5
C1
100
AcDbEntity
  8
0
  6
ByBlock
 62
  144
370
   -2
100
AcDbLine
 10
160
 20
-15
 11
160
 21
-65.625
  0
SOLID
  5
C2
100
AcDbEntity
  8
0
  6
ByBlock
 62
  144
370
   -2
100
AcDbTrace
 10
160
 20
-15
 30
0
 11
160.4162846577728
 21
-17.5
 31
0
 12
159.5837153422272
 22
-17.5
 32
0
 13
159.5837153422272
 23
-17.5
 33
0
  0
SOLID
  5
C3
100
AcDbEntity
  8
0
  6
ByBlock
 62
  144
370
   -2
100
AcDbTrace
 10
160
 20
-120
 30
0
 11
159.5837153422272
 21
-117.5
 31
0
 12
160.4162846577728
 22
-117.5
 32
0
 13
160.4162846577728
 23
-117.5
 33
0
  0
LINE
  5
C4
100
AcDbEntity
  8
0
  6
ByBlock
 62
  144
370
   -2
100
AcDbLine
 10
160
 20
-69.375
 11
160
 21
-120
  0
MTEXT
  5
C5
100
AcDbEntity
  8
0
  6
CONTINUOUS
 62
  144
370
   -2
100
AcDbMText
 10
160
 20
-67.5
 30
0
 40
2.5
 41
4.444444444444599
 71
    5
 72
    1
  1
105
  7
standard
210
0
220
0
230
1
 50
0
 73
    2
 44
1
  0
LINE
  5
C6
100
AcDbEntity
  8
0
  6
ByBlock
 62
  144
370
   -2
100
AcDbLine
 10
150.625
 20
-15
 11
161.25
 21
-15
  0
LINE
  5
C7
100
AcDbEntity
  8
0
  6
ByBlock
 62
  144
370
   -2
100
AcDbLine
 10
150.625
 20
-120
 11
161.25
 21
-120
  0
ENDBLK
  5
67
330
65
100
AcDbEntity
  8
0
100
AcDbBlockEnd
  0
BLOCK
  5
69
330
68
100
AcDbEntity
  8
0
100
AcDbBlockBegin
  2
*D16
 70
    1
 10
0
 20
0
  3
*D16
  1

  0
LINE
  5
C8
100
AcDbEntity
  8
0
  6
ByBlock
 62
  144
370
   -2
100
AcDbLine
 10
-4.999999999999993
 20
-5
 11
-4.999999999999996
 21
-62.625
  0
SOLID
  5
C9
100
AcDbEntity
  8
0
  6
ByBlock
 62
  144
370
   -2
100
AcDbTrace
 10
-4.999999999999993
 20
-5
 30
0
 11
-4.583715342227152
 21
-7.5
 31
0
 12
-5.416284657772834
 22
-7.5
 32
0
 13
-5.416284657772834
 23
-7.5
 33
0
  0
SOLID
  5
CA
100
AcDbEntity
  8
0
  6
ByBlock
 62
  144
370
   -2
100
AcDbTrace
 10
-5
 20
-124
 30
0
 11
-5.41628465777284
 21
-121.5
 31
0
 12
-4.583715342227159
 22
-121.5
 32
0
 13
-4.583715342227159
 23
-121.5
 33
0
  0
LINE
  5
CB
100
AcDbEntity
  8
0
  6
ByBlock
 62
  144
370
   -2
100
AcDbLine
 10
-4.999999999999996
 20
-66.375
 11
-5
 21
-124
  0
MTEXT
  5
CC
100
AcDbEntity
  8
0
  6
CONTINUOUS
 62
  144
370
   -2
100
AcDbMText
 10
-4.999999999999996
 20
-64.5
 30
0
 40
2.5
 41
3.888888888888889
 71
    5
 72
    1
  1
119
  7
standard
210
0
220
0
230
1
 50
0
 73
    2
 44
1
  0
LINE
  5
CD
100
AcDbEntity
  8
0
  6
ByBlock
 62
  144
370
   -2
100
AcDbLine
 10
9.375
 20
-5
 11
-6.249999999999993
 21
-5
  0
LINE
  5
CE
100
AcDbEntity
  8
0
  6
ByBlock
 62
  144
370
   -2
100
AcDbLine
 10
1.375
 20
-124
 11
-6.25
 21
-124
  0
ENDBLK
  5
6A
330
68
100
AcDbEntity
  8
0
100
AcDbBlockEnd
  0
BLOCK
  5
6C
330
6B
100
AcDbEntity
  8
0
100
AcDbBlockBegin
  2
*D5
 70
    1
 10
0
 20
0
  3
*D5
  1

  0
LINE
  5
CF
100
AcDbEntity
  8
0
  6
ByBlock
 62
  144
370
   -2
100
AcDbLine
 10
94
 20
-24
 11
55.375
 21
-24
  0
SOLID
  5
D0
100
AcDbEntity
  8
0
  6
ByBlock
 62
  144
370
   -2
100
AcDbTrace
 10
94
 20
-24
 30
0
 11
91.5
 21
-24.41628465777284
 31
0
 12
91.5
 22
-23.58371534222716
 32
0
 13
91.5
 23
-23.58371534222716
 33
0
  0
SOLID
  5
D1
100
AcDbEntity
  8
0
  6
ByBlock
 62
  144
370
   -2
100
AcDbTrace
 10
13
 20
-24
 30
0
 11
15.5
 21
-23.58371534222716
 31
0
 12
15.5
 22
-24.41628465777284
 32
0
 13
15.5
 23
-24.41628465777284
 33
0
  0
LINE
  5
D2
100
AcDbEntity
  8
0
  6
ByBlock
 62
  144
370
   -2
100
AcDbLine
 10
51.625
 20
-24
 11
13
 21
-24
  0
MTEXT
  5
D3
100
AcDbEntity
  8
0
  6
CONTINUOUS
 62
  144
370
   -2
100
AcDbMText
 10
53.5
 20
-24
 30
0
 40
2.5
 41
2.5
 71
    5
 72
    1
  1
81
  7
standard
210
0
220
0
230
1
 50
0
 73
    2
 44
1
  0
LINE
  5
D4
100
AcDbEntity
  8
0
  6
ByBlock
 62
  144
370
   -2
100
AcDbLine
 10
94
 20
-7.625
 11
94
 21
-25.25
  0
LINE
  5
D5
100
AcDbEntity
  8
0
  6
ByBlock
 62
  144
370
   -2
100
AcDbLine
 10
13
 20
-8.625
 11
13
 21
-25.25
  0
ENDBLK
  5
6D
330
6B
100
AcDbEntity
  8
0
100
AcDbBlockEnd
  0
BLOCK
  5
6F
330
6E
100
AcDbEntity
  8
0
100
AcDbBlockBegin
  2
*D15
 70
    1
 10
0
 20
0
  3
*D15
  1

  0
LINE
  5
D6
100
AcDbEntity
  8
0
  6
ByBlock
 62
  144
370
   -2
100
AcDbLine
 10
34.00000000000001
 20
-48
 11
34.00000000000001
 21
-77.125
  0
SOLID
  5
D7
100
AcDbEntity
  8
0
  6
ByBlock
 62
  144
370
   -2
100
AcDbTrace
 10
34.00000000000001
 20
-48
 30
0
 11
34.41628465777285
 21
-50.5
 31
0
 12
33.58371534222717
 22
-50.5
 32
0
 13
33.58371534222717
 23
-50.5
 33
0
  0
SOLID
  5
D8
100
AcDbEntity
  8
0
  6
ByBlock
 62
  144
370
   -2
100
AcDbTrace
 10
34
 20
-110
 30
0
 11
33.58371534222716
 21
-107.5
 31
0
 12
34.41628465777284
 22
-107.5
 32
0
 13
34.41628465777284
 23
-107.5
 33
0
  0
LINE
  5
D9
100
AcDbEntity
  8
0
  6
ByBlock
 62
  144
370
   -2
100
AcDbLine
 10
34.00000000000001
 20
-80.875
 11
34
 21
-110
  0
MTEXT
  5
DA
100
AcDbEntity
  8
0
  6
CONTINUOUS
 62
  144
370
   -2
100
AcDbMText
 10
34
 20
-79
 30
0
 40
2.5
 41
3.055555555555711
 71
    5
 72
    1
  1
62
  7
standard
210
0
220
0
230
1
 50
0
 73
    2
 44
1
  0
LINE
  5
DB
100
AcDbEntity
  8
0
  6
ByBlock
 62
  144
370
   -2
100
AcDbLine
 10
36.375
 20
-48
 11
32.75000000000001
 21
-48
  0
LINE
  5
DC
100
AcDbEntity
  8
0
  6
ByBlock
 62
  144
370
   -2
100
AcDbLine
 10
36.375
 20
-110
 11
32.75
 21
-110
  0
ENDBLK
  5
70
330
6E
100
AcDbEntity
  8
0
100
AcDbBlockEnd
  0
BLOCK
  5
72
330
71
100
AcDbEntity
  8
0
100
AcDbBlockBegin
  2
*D7
 70
    1
 10
0
 20
0
  3
*D7
  1

  0
LINE
  5
DD
100
AcDbEntity
  8
0
  6
ByBlock
 62
  144
370
   -2
100
AcDbLine
 10
120
 20
-135
 11
120
 21
-138.125
  0
SOLID
  5
DE
100
AcDbEntity
  8
0
  6
ByBlock
 62
  144
370
   -2
100
AcDbTrace
 10
120
 20
-135
 30
0
 11
120.4162846577728
 21
-137.5
 31
0
 12
119.5837153422272
 22
-137.5
 32
0
 13
119.5837153422272
 23
-137.5
 33
0
  0
SOLID
  5
DF
100
AcDbEntity
  8
0
  6
ByBlock
 62
  144
370
   -2
100
AcDbTrace
 10
120
 20
-145
 30
0
 11
119.5837153422272
 21
-142.5
 31
0
 12
120.4162846577728
 22
-142.5
 32
0
 13
120.4162846577728
 23
-142.5
 33
0
  0
LINE
  5
E0
100
AcDbEntity
  8
0
  6
ByBlock
 62
  144
370
   -2
100
AcDbLine
 10
120
 20
-141.875
 11
120
 21
-145
  0
MTEXT
  5
E1
100
AcDbEntity
  8
0
  6
CONTINUOUS
 62
  144
370
   -2
100
AcDbMText
 10
120
 20
-140
 30
0
 40
2.5
 41
2.5
 71
    5
 72
    1
  1
10
  7
standard
210
0
220
0
230
1
 50
0
 73
    2
 44
1
  0
LINE
  5
E2
100
AcDbEntity
  8
0
  6
ByBlock
 62
  144
370
   -2
100
AcDbLine
 10
100.625
 20
-135
 11
121.25
 21
-135
  0
LINE
  5
E3
100
AcDbEntity
  8
0
  6
ByBlock
 62
  144
370
   -2
100
AcDbLine
 10
120.625
 20
-145
 11
121.25
 21
-145
  0
ENDBLK
  5
73
330
71
100
AcDbEntity
  8
0
100
AcDbBlockEnd
  0
BLOCK
  5
75
330
74
100
AcDbEntity
  8
0
100
AcDbBlockBegin
  2
*D1
 70
    1
 10
0
 20
0
  3
*D1
  1

  0
LINE
  5
E4
100
AcDbEntity
  8
0
  6
ByBlock
 62
  144
370
   -2
100
AcDbLine
 10
22
 20
10
 11
47.34722222222207
 21
10
  0
SOLID
  5
E5
100
AcDbEntity
  8
0
  6
ByBlock
 62
  144
370
   -2
100
AcDbTrace
 10
22
 20
10
 30
0
 11
24.5
 21
10.41628465777284
 31
0
 12
24.5
 22
9.583715342227158
 32
0
 13
24.5
 23
9.583715342227158
 33
0
  0
SOLID
  5
E6
100
AcDbEntity
  8
0
  6
ByBlock
 62
  144
370
   -2
100
AcDbTrace
 10
77
 20
10
 30
0
 11
74.5
 21
9.58371534222716
 31
0
 12
74.5
 22
10.41628465777284
 32
0
 13
74.5
 23
10.41628465777284
 33
0
  0
LINE
  5
E7
100
AcDbEntity
  8
0
  6
ByBlock
 62
  144
370
   -2
100
AcDbLine
 10
51.65277777777793
 20
10
 11
77
 21
10
  0
MTEXT
  5
E8
100
AcDbEntity
  8
0
  6
CONTINUOUS
 62
  144
370
   -2
100
AcDbMText
 10
49.5
 20
10
 30
0
 40
2.5
 41
3.055555555555866
 71
    5
 72
    1
  1
55
  7
standard
210
0
220
0
230
1
 50
0
 73
    2
 44
1
  0
LINE
  5
E9
100
AcDbEntity
  8
0
  6
ByBlock
 62
  144
370
   -2
100
AcDbLine
 10
22
 20
0.625
 11
22
 21
11.25
  0
LINE
  5
EA
100
AcDbEntity
  8
0
  6
ByBlock
 62
  144
370
   -2
100
AcDbLine
 10
77
 20
0.625
 11
77
 21
11.25
  0
ENDBLK
  5
76
330
74
100
AcDbEntity
  8
0
100
AcDbBlockEnd
  0
BLOCK
  5
78
330
77
100
AcDbEntity
  8
0
100
AcDbBlockBegin
  2
*D4
 70
    1
 10
0
 20
0
  3
*D4
  1

  0
LINE
  5
EB
100
AcDbEntity
  8
0
  6
ByBlock
 62
  144
370
   -2
100
AcDbLine
 10
97
 20
-5
 11
97
 21
-61.625
  0
SOLID
  5
EC
100
AcDbEntity
  8
0
  6
ByBlock
 62
  144
370
   -2
100
AcDbTrace
 10
97
 20
-5
 30
0
 11
97.41628465777283
 21
-7.5
 31
0
 12
96.58371534222717
 22
-7.5
 32
0
 13
96.58371534222717
 23
-7.5
 33
0
  0
SOLID
  5
ED
100
AcDbEntity
  8
0
  6
ByBlock
 62
  144
370
   -2
100
AcDbTrace
 10
97
 20
-122
 30
0
 11
96.58371534222717
 21
-119.5
 31
0
 12
97.41628465777283
 22
-119.5
 32
0
 13
97.41628465777283
 23
-119.5
 33
0
  0
LINE
  5
EE
100
AcDbEntity
  8
0
  6
ByBlock
 62
  144
370
   -2
100
AcDbLine
 10
97
 20
-65.375
 11
97
 21
-122
  0
MTEXT
  5
EF
100
AcDbEntity
  8
0
  6
CONTINUOUS
 62
  144
370
   -2
100
AcDbMText
 10
97
 20
-63.5
 30
0
 40
2.5
 41
3.888888888888889
 71
    5
 72
    1
  1
117
  7
standard
210
0
220
0
230
1
 50
0
 73
    2
 44
1
  0
LINE
  5
F0
100
AcDbEntity
  8
0
  6
ByBlock
 62
  144
370
   -2
100
AcDbLine
 10
96.625
 20
-5
 11
98.25
 21
-5
  0
LINE
  5
F1
100
AcDbEntity
  8
0
  6
ByBlock
 62
  144
370
   -2
100
AcDbLine
 10
90.625
 20
-122
 11
98.25
 21
-122
  0
ENDBLK
  5
79
330
77
100
AcDbEntity
  8
0
100
AcDbBlockEnd
  0
BLOCK
  5
7B
330
7A
100
AcDbEntity
  8
0
100
AcDbBlockBegin
  2
*D12
 70
    1
 10
0
 20
0
  3
*D12
  1

  0
LINE
  5
F2
100
AcDbEntity
  8
0
  6
ByBlock
 62
  144
370
   -2
100
AcDbLine
 10
163
 20
1.77635683940025e-15
 11
163
 21
-5.624999999999999
  0
SOLID
  5
F3
100
AcDbEntity
  8
0
  6
ByBlock
 62
  144
370
   -2
100
AcDbTrace
 10
163
 20
1.77635683940025e-15
 30
0
 11
163.4162846577728
 21
-2.499999999999998
 31
0
 12
162.5837153422272
 22
-2.499999999999998
 32
0
 13
162.5837153422272
 23
-2.499999999999998
 33
0
  0
SOLID
  5
F4
100
AcDbEntity
  8
0
  6
ByBlock
 62
  144
370
   -2
100
AcDbTrace
 10
163
 20
-15
 30
0
 11
162.5837153422272
 21
-12.5
 31
0
 12
163.4162846577728
 22
-12.5
 32
0
 13
163.4162846577728
 23
-12.5
 33
0
  0
LINE
  5
F5
100
AcDbEntity
  8
0
  6
ByBlock
 62
  144
370
   -2
100
AcDbLine
 10
163
 20
-9.375
 11
163
 21
-15
  0
MTEXT
  5
F6
100
AcDbEntity
  8
0
  6
CONTINUOUS
 62
  144
370
   -2
100
AcDbMText
 10
163
 20
-7.499999999999999
 30
0
 40
2.5
 41
2.500000000000155
 71
    5
 72
    1
  1
15
  7
standard
210
0
220
0
230
1
 50
0
 73
    2
 44
1
  0
LINE
  5
F7
100
AcDbEntity
  8
0
  6
ByBlock
 62
  144
370
   -2
100
AcDbLine
 10
160.625
 20
2.775557561562891e-16
 11
164.25
 21
2.331468351712829e-15
  0
LINE
  5
F8
100
AcDbEntity
  8
0
  6
ByBlock
 62
  144
370
   -2
100
AcDbLine
 10
150.625
 20
-15
 11
164.25
 21
-15
  0
ENDBLK
  5
7C
330
7A
100
AcDbEntity
  8
0
100
AcDbBlockEnd
  0
BLOCK
  5
7E
330
7D
100
AcDbEntity
  8
0
100
AcDbBlockBegin
  2
*D3
 70
    1
 10
0
 20
0
  3
*D3
  1

  0
LINE
  5
F9
100
AcDbEntity
  8
0
  6
ByBlock
 62
  144
370
   -2
100
AcDbLine
 10
-15.99999999999999
 20
0
 11
-16
 21
-45.625
  0
SOLID
  5
FA
100
AcDbEntity
  8
0
  6
ByBlock
 62
  144
370
   -2
100
AcDbTrace
 10
-15.99999999999999
 20
0
 30
0
 11
-15.58371534222715
 21
-2.5
 31
0
 12
-16.41628465777283
 22
-2.5
 32
0
 13
-16.41628465777283
 23
-2.5
 33
0
  0
SOLID
  5
FB
100
AcDbEntity
  8
0
  6
ByBlock
 62
  144
370
   -2
100
AcDbTrace
 10
-16
 20
-95
 30
0
 11
-16.41628465777284
 21
-92.5
 31
0
 12
-15.58371534222716
 22
-92.5
 32
0
 13
-15.58371534222716
 23
-92.5
 33
0
  0
LINE
  5
FC
100
AcDbEntity
  8
0
  6
ByBlock
 62
  144
370
   -2
100
AcDbLine
 10
-16
 20
-49.375
 11
-16
 21
-95
  0
MTEXT
  5
FD
100
AcDbEntity
  8
0
  6
CONTINUOUS
 62
  144
370
   -2
100
AcDbMText
 10
-16
 20
-47.5
 30
0
 40
2.5
 41
3.055555555555866
 71
    5
 72
    1
  1
95
  7
standard
210
0
220
0
230
1
 50
0
 73
    2
 44
1
  0
LINE
  5
FE
100
AcDbEntity
  8
0
  6
ByBlock
 62
  144
370
   -2
100
AcDbLine
 10
2.375
 20
7.654042494670958e-17
 11
-17.24999999999999
 21
1.530808498934192e-16
  0
LINE
  5
FF
100
AcDbEntity
  8
0
  6
ByBlock
 62
  144
370
   -2
100
AcDbLine
 10
-10.625
 20
-95
 11
-17.25
 21
-95
  0
ENDBLK
  5
7F
330
7D
100
AcDbEntity
  8
0
100
AcDbBlockEnd
  0
BLOCK
  5
81
330
80
100
AcDbEntity
  8
0
100
AcDbBlockBegin
  2
*D20
 70
    1
 10
0
 20
0
  3
*D20
  1

  0
LINE
  5
100
100
AcDbEntity
  8
0
  6
ByBlock
 62
  144
370
   -2
100
AcDbLine
 10
4
 20
-115
 11
44.84722222222214
 21
-115
  0
SOLID
  5
101
100
AcDbEntity
  8
0
  6
ByBlock
 62
  144
370
   -2
100
AcDbTrace
 10
4
 20
-115
 30
0
 11
6.5
 21
-114.5837153422272
 31
0
 12
6.5
 22
-115.4162846577728
 32
0
 13
6.5
 23
-115.4162846577728
 33
0
  0
SOLID
  5
102
100
AcDbEntity
  8
0
  6
ByBlock
 62
  144
370
   -2
100
AcDbTrace
 10
90
 20
-115
 30
0
 11
87.5
 21
-115.4162846577728
 31
0
 12
87.5
 22
-114.5837153422272
 32
0
 13
87.5
 23
-114.5837153422272
 33
0
  0
LINE
  5
103
100
AcDbEntity
  8
0
  6
ByBlock
 62
  144
370
   -2
100
AcDbLine
 10
49.15277777777786
 20
-115
 11
90
 21
-115
  0
MTEXT
  5
104
100
AcDbEntity
  8
0
  6
CONTINUOUS
 62
  144
370
   -2
100
AcDbMText
 10
47
 20
-115
 30
0
 40
2.5
 41
3.055555555555711
 71
    5
 72
    1
  1
86
  7
standard
210
0
220
0
230
1
 50
0
 73
    2
 44
1
  0
LINE
  5
105
100
AcDbEntity
  8
0
  6
ByBlock
 62
  144
370
   -2
100
AcDbLine
 10
4
 20
-121.375
 11
4
 21
-113.75
  0
LINE
  5
106
100
AcDbEntity
  8
0
  6
ByBlock
 62
  144
370
   -2
100
AcDbLine
 10
90
 20
-120.375
 11
90
 21
-113.75
  0
ENDBLK
  5
82
330
80
100
AcDbEntity
  8
0
100
AcDbBlockEnd
  0
BLOCK
  5
84
330
83
100
AcDbEntity
  8
0
100
AcDbBlockBegin
  2
*D10
 70
    1
 10
0
 20
0
  3
*D10
  1

  0
LINE
  5
107
100
AcDbEntity
  8
0
  6
ByBlock
 62
  144
370
   -2
100
AcDbLine
 10
-16
 20
-130
 11
-16
 21
-114.375
  0
SOLID
  5
108
100
AcDbEntity
  8
0
  6
ByBlock
 62
  144
370
   -2
100
AcDbTrace
 10
-16
 20
-130
 30
0
 11
-16.41628465777285
 21
-127.5
 31
0
 12
-15.58371534222716
 22
-127.5
 32
0
 13
-15.58371534222716
 23
-127.5
 33
0
  0
SOLID
  5
109
100
AcDbEntity
  8
0
  6
ByBlock
 62
  144
370
   -2
100
AcDbTrace
 10
-16
 20
-95
 30
0
 11
-15.58371534222716
 21
-97.5
 31
0
 12
-16.41628465777284
 22
-97.5
 32
0
 13
-16.41628465777284
 23
-97.5
 33
0
  0
LINE
  5
10A
100
AcDbEntity
  8
0
  6
ByBlock
 62
  144
370
   -2
100
AcDbLine
 10
-16
 20
-110.625
 11
-16
 21
-95
  0
MTEXT
  5
10B
100
AcDbEntity
  8
0
  6
CONTINUOUS
 62
  144
370
   -2
100
AcDbMText
 10
-16
 20
-112.5
 30
0
 40
2.5
 41
3.055555555555866
 71
    5
 72
    1
  1
35
  7
standard
210
0
220
0
230
1
 50
0
 73
    2
 44
1
  0
LINE
  5
10C
100
AcDbEntity
  8
0
  6
ByBlock
 62
  144
370
   -2
100
AcDbLine
 10
-2.625
 20
-130
 11
-17.25
 21
-130
  0
LINE
  5
10D
100
AcDbEntity
  8
0
  6
ByBlock
 62
  144
370
   -2
100
AcDbLine
 10
-10.625
 20
-95
 11
-17.25
 21
-95
  0
ENDBLK
  5
85
330
83
100
AcDbEntity
  8
0
100
AcDbBlockEnd
  0
BLOCK
  5
87
330
86
100
AcDbEntity
  8
0
100
AcDbBlockBegin
  2
*D2
 70
    1
 10
0
 20
0
  3
*D2
  1

  0
LINE
  5
10E
100
AcDbEntity
  8
0
  6
ByBlock
 62
  144
370
   -2
100
AcDbLine
 10
3
 20
10
 11
10.625
 21
10
  0
SOLID
  5
10F
100
AcDbEntity
  8
0
  6
ByBlock
 62
  144
370
   -2
100
AcDbTrace
 10
3
 20
10
 30
0
 11
5.5
 21
10.41628465777284
 31
0
 12
5.5
 22
9.583715342227158
 32
0
 13
5.5
 23
9.583715342227158
 33
0
  0
SOLID
  5
110
100
AcDbEntity
  8
0
  6
ByBlock
 62
  144
370
   -2
100
AcDbTrace
 10
22
 20
10
 30
0
 11
19.5
 21
9.58371534222716
 31
0
 12
19.5
 22
10.41628465777284
 32
0
 13
19.5
 23
10.41628465777284
 33
0
  0
LINE
  5
111
100
AcDbEntity
  8
0
  6
ByBlock
 62
  144
370
   -2
100
AcDbLine
 10
14.375
 20
10
 11
22
 21
10
  0
MTEXT
  5
112
100
AcDbEntity
  8
0
  6
CONTINUOUS
 62
  144
370
   -2
100
AcDbMText
 10
12.5
 20
10
 30
0
 40
2.5
 41
2.5
 71
    5
 72
    1
  1
19
  7
standard
210
0
220
0
230
1
 50
0
 73
    2
 44
1
  0
LINE
  5
113
100
AcDbEntity
  8
0
  6
ByBlock
 62
  144
370
   -2
100
AcDbLine
 10
3
 20
0.625
 11
3
 21
11.25
  0
LINE
  5
114
100
AcDbEntity
  8
0
  6
ByBlock
 62
  144
370
   -2
100
AcDbLine
 10
22
 20
0.625
 11
22
 21
11.25
  0
ENDBLK
  5
88
330
86
100
AcDbEntity
  8
0
100
AcDbBlockEnd
  0
ENDSEC
  0
SECTION
  2
ENTITIES
  0
LINE
  5
115
100
AcDbEntity
  8
0
  6
ByLayer
 62
  256
370
   -1
100
AcDbLine
 10
22
 20
-15
 11
77
 21
-15
  0
DIMENSION
  5
116
100
AcDbEntity
  8
0
  6
ByLayer
 62
  256
370
   -1
100
AcDbDimension
  2
*D1
 10
80
 20
10
 30
0
 11
49.5
 21
10
 31
0
 70
   32
 71
    5
  3
Standard
 53
0
210
0
220
0
230
1
100
AcDbAlignedDimension
 13
22
 23
0
 33
0
 14
77
 24
0
 34
0
100
AcDbRotatedDimension
  0
DIMENSION
  5
117
100
AcDbEntity
  8
0
  6
ByLayer
 62
  256
370
   -1
100
AcDbDimension
  2
*D2
 10
20
 20
10
 30
0
 11
12.5
 21
10
 31
0
 70
   32
 71
    5
  3
Standard
 53
0
210
0
220
0
230
1
100
AcDbAlignedDimension
 13
3
 23
0
 33
0
 14
22
 24
0
 34
0
100
AcDbRotatedDimension
  0
DIMENSION
  5
118
100
AcDbEntity
  8
0
  6
ByLayer
 62
  256
370
   -1
100
AcDbDimension
  2
*D3
 10
-16
 20
-95
 30
0
 11
-16
 21
-47.5
 31
0
 70
   32
 71
    5
  3
Standard
 53
0
210
0
220
0
230
1
100
AcDbAlignedDimension
 13
3
 23
0
 33
0
 14
-10
 24
-95
 34
0
 50
90
100
AcDbRotatedDimension
  0
LINE
  5
119
100
AcDbEntity
  8
0
  6
ByLayer
 62
  256
370
   -1
100
AcDbLine
 10
-2
 20
-95
 11
3
 21
-95
  0
CIRCLE
  5
11A
100
AcDbEntity
  8
0
  6
ByLayer
 62
  256
370
   -1
100
AcDbCircle
 10
13
 20
-5
 40
2.23606797749979
  0
CIRCLE
  5
11B
100
AcDbEntity
  8
0
  6
ByLayer
 62
  256
370
   -1
100
AcDbCircle
 10
111
 20
-5
 40
1.414213562373095
  0
CIRCLE
  5
11C
100
AcDbEntity
  8
0
  6
ByLayer
 62
  256
370
   -1
100
AcDbCircle
 10
94
 20
-5
 40
2
  0
DIMENSION
  5
11D
100
AcDbEntity
  8
0
  6
ByLayer
 62
  256
370
   -1
100
AcDbDimension
  2
*D4
 10
97
 20
-130
 30
0
 11
97
 21
-63.5
 31
0
 70
   32
 71
    5
 72
    0
  3
Standard
 53
0
210
0
220
0
230
1
100
AcDbAlignedDimension
 13
96
 23
-5
 33
0
 14
90
 24
-122
 34
0
 50
90
100
AcDbRotatedDimension
  0
DIMENSION
  5
11E
100
AcDbEntity
  8
0
  6
ByLayer
 62
  256
370
   -1
100
AcDbDimension
  2
*D5
 10
10
 20
-24
 30
0
 11
53.5
 21
-24
 31
0
 70
   32
 71
    5
  3
Standard
 53
0
210
0
220
0
230
1
100
AcDbAlignedDimension
 13
94
 23
-7
 33
0
 14
13
 24
-8
 34
0
100
AcDbRotatedDimension
  0
DIMENSION
  5
11F
100
AcDbEntity
  8
0
  6
ByLayer
 62
  256
370
   -1
100
AcDbDimension
  2
*D6
 10
94
 20
-24
 30
0
 11
102.5
 21
-24
 31
0
 70
   32
 71
    5
  3
Standard
 53
0
210
0
220
0
230
1
100
AcDbAlignedDimension
 13
111
 23
-7
 33
0
 14
94
 24
-24
 34
0
100
AcDbRotatedDimension
  0
CIRCLE
  5
120
100
AcDbEntity
  8
0
  6
ByLayer
 62
  256
370
   -1
100
AcDbCircle
 10
75
 20
-124
 40
1.414213562373095
  0
CIRCLE
  5
121
100
AcDbEntity
  8
0
  6
ByLayer
 62
  256
370
   -1
100
AcDbCircle
 10
90
 20
-124
 40
2.23606797749979
  0
DIMENSION
  5
122
100
AcDbEntity
  8
0
  6
ByLayer
 62
  256
370
   -1
100
AcDbDimension
  2
*D7
 10
120
 20
-150
 30
0
 11
120
 21
-140
 31
0
 70
   32
 71
    5
  3
Standard
 53
0
210
0
220
0
230
1
100
AcDbAlignedDimension
 13
100
 23
-135
 33
0
 14
120
 24
-145
 34
0
 50
90
100
AcDbRotatedDimension
  0
DIMENSION
  5
123
100
AcDbEntity
  8
0
  6
ByLayer
 62
  256
370
   -1
100
AcDbDimension
  2
*D8
 10
140
 20
-150
 30
0
 11
140
 21
-132.5
 31
0
 70
   32
 71
    5
  3
Standard
 53
0
210
0
220
0
230
1
100
AcDbAlignedDimension
 13
140
 23
-120
 33
0
 14
140
 24
-145
 34
0
 50
90
100
AcDbRotatedDimension
  0
LINE
  5
124
100
AcDbEntity
  8
0
  6
ByLayer
 62
  256
370
   -1
100
AcDbLine
 10
-2
 20
-130
 11
-2
 21
-95
  0
DIMENSION
  5
125
100
AcDbEntity
  8
0
  6
ByLayer
 62
  256
370
   -1
100
AcDbDimension
  2
*D9
 10
31
 20
-117
 30
0
 11
31
 21
-123.5
 31
0
 70
   32
 71
    5
  3
Standard
 53
0
210
0
220
0
230
1
100
AcDbAlignedDimension
 13
20
 23
-130
 33
0
 14
31
 24
-117
 34
0
 50
90
100
AcDbRotatedDimension
  0
DIMENSION
  5
126
100
AcDbEntity
  8
0
  6
ByLayer
 62
  256
370
   -1
100
AcDbDimension
  2
*D10
 10
-16
 20
-95
 30
0
 11
-16
 21
-112.5
 31
0
 70
   32
 71
    5
  3
Standard
 53
0
210
0
220
0
230
1
100
AcDbAlignedDimension
 13
-2
 23
-130
 33
0
 14
-10
 24
-95
 34
0
 50
90
100
AcDbRotatedDimension
  0
DIMENSION
  5
127
100
AcDbEntity
  8
0
  6
ByLayer
 62
  256
370
   -1
100
AcDbDimension
  2
*D11
 10
150
 20
-150
 30
0
 11
74
 21
-150
 31
0
 70
   32
 71
    5
  3
Standard
 53
0
210
0
220
0
230
1
100
AcDbAlignedDimension
 13
-2
 23
-130
 33
0
 14
150
 24
-120
 34
0
100
AcDbRotatedDimension
  0
DIMENSION
  5
128
100
AcDbEntity
  8
0
  6
ByLayer
 62
  256
370
   -1
100
AcDbDimension
  2
*D12
 10
163
 20
-15.00000000000001
 30
0
 11
163
 21
-7.499999999999999
 31
0
 70
   32
 71
    5
  3
Standard
 53
0
210
0
220
0
230
1
100
AcDbAlignedDimension
 13
160
 23
0
 33
0
 14
150
 24
-15
 34
0
 50
90
100
AcDbRotatedDimension
  0
DIMENSION
  5
129
100
AcDbEntity
  8
0
  6
ByLayer
 62
  256
370
   -1
100
AcDbDimension
  2
*D13
 10
160
 20
-20
 30
0
 11
160
 21
-67.5
 31
0
 70
   32
 71
    5
  3
QCADDimStyle
 53
0
210
0
220
0
230
1
100
AcDbAlignedDimension
 13
150
 23
-15
 33
0
 14
150
 24
-120
 34
0
 50
90
100
AcDbRotatedDimension
  0
LINE
  5
12A
100
AcDbEntity
  8
0
  6
ByLayer
 62
  256
370
   -1
100
AcDbLine
 10
3
 20
-95
 11
3
 21
-5
  0
ARC
  5
12B
100
AcDbEntity
  8
0
  6
ByLayer
 62
  256
370
   -1
100
AcDbCircle
 10
8
 20
-5
 40
5
100
AcDbArc
 50
90
 51
180
  0
LINE
  5
12C
100
AcDbEntity
  8
0
  6
ByLayer
 62
  256
370
   -1
100
AcDbLine
 10
145
 20
-120
 11
100
 21
-120
  0
ARC
  5
12D
100
AcDbEntity
  8
0
  6
ByLayer
 62
  256
370
   -1
100
AcDbCircle
 10
145
 20
-115
 40
5
100
AcDbArc
 50
270
 51
0
  0
LINE
  5
12E
100
AcDbEntity
  8
0
  6
ByLayer
 62
  256
370
   -1
100
AcDbLine
 10
150
 20
-20
 11
150
 21
-115
  0
ARC
  5
12F
100
AcDbEntity
  8
0
  6
ByLayer
 62
  256
370
   -1
100
AcDbCircle
 10
145
 20
-20
 40
5
100
AcDbArc
 50
0
 51
90
  0
LINE
  5
130
100
AcDbEntity
  8
0
  6
ByLayer
 62
  256
370
   -1
100
AcDbLine
 10
77
 20
-15
 11
77
 21
-5
  0
ARC
  5
131
100
AcDbEntity
  8
0
  6
ByLayer
 62
  256
370
   -1
100
AcDbCircle
 10
82
 20
-5
 40
5
100
AcDbArc
 50
90
 51
180
  0
LINE
  5
132
100
AcDbEntity
  8
0
  6
ByLayer
 62
  256
370
   -1
100
AcDbLine
 10
82
 20
0
 11
112
 21
0
  0
LINE
  5
133
100
AcDbEntity
  8
0
  6
ByLayer
 62
  256
370
   -1
100
AcDbLine
 10
8
 20
0
 11
17
 21
0
  0
LINE
  5
134
100
AcDbEntity
  8
0
  6
ByLayer
 62
  256
370
   -1
100
AcDbLine
 10
22
 20
-5
 11
22
 21
-15
  0
ARC
  5
135
100
AcDbEntity
  8
0
  6
ByLayer
 62
  256
370
   -1
100
AcDbCircle
 10
17
 20
-5
 40
5
100
AcDbArc
 50
0
 51
90
  0
LINE
  5
136
100
AcDbEntity
  8
0
  6
ByLayer
 62
  256
370
   -1
100
AcDbLine
 10
100
 20
-120
 11
100
 21
-130
  0
LINE
  5
137
100
AcDbEntity
  8
0
  6
ByLayer
 62
  256
370
   -1
100
AcDbLine
 10
95
 20
-135
 11
85
 21
-135
  0
ARC
  5
138
100
AcDbEntity
  8
0
  6
ByLayer
 62
  256
370
   -1
100
AcDbCircle
 10
95
 20
-130
 40
5
100
AcDbArc
 50
270
 51
0
  0
LINE
  5
139
100
AcDbEntity
  8
0
  6
ByLayer
 62
  256
370
   -1
100
AcDbLine
 10
85
 20
-135
 11
85
 21
-140
  0
ARC
  5
13A
100
AcDbEntity
  8
0
  6
ByLayer
 62
  256
370
   -1
100
AcDbCircle
 10
80
 20
-140
 40
5
100
AcDbArc
 50
270
 51
0
  0
LINE
  5
13B
100
AcDbEntity
  8
0
  6
ByLayer
 62
  256
370
   -1
100
AcDbLine
 10
80
 20
-145
 11
75
 21
-145
  0
ARC
  5
13C
100
AcDbEntity
  8
0
  6
ByLayer
 62
  256
370
   -1
100
AcDbCircle
 10
75
 20
-140
 40
5
100
AcDbArc
 50
180
 51
270
  0
LINE
  5
13D
100
AcDbEntity
  8
0
  6
ByLayer
 62
  256
370
   -1
100
AcDbLine
 10
15
 20
-130
 11
-2
 21
-130
  0
ARC
  5
13E
100
AcDbEntity
  8
0
  6
ByLayer
 62
  256
370
   -1
100
AcDbCircle
 10
15
 20
-125
 40
5
100
AcDbArc
 50
270
 51
0
  0
LINE
  5
13F
100
AcDbEntity
  8
0
  6
ByLayer
 62
  256
370
   -1
100
AcDbLine
 10
70
 20
-140
 11
70
 21
-122
  0
ARC
  5
140
100
AcDbEntity
  8
0
  6
ByLayer
 62
  256
370
   -1
100
AcDbCircle
 10
65
 20
-122
 40
5
100
AcDbArc
 50
0
 51
90
  0
LINE
  5
141
100
AcDbEntity
  8
0
  6
ByLayer
 62
  256
370
   -1
100
AcDbLine
 10
65
 20
-117
 11
25
 21
-117
  0
LINE
  5
142
100
AcDbEntity
  8
0
  6
ByLayer
 62
  256
370
   -1
100
AcDbLine
 10
20
 20
-122
 11
20
 21
-125
  0
ARC
  5
143
100
AcDbEntity
  8
0
  6
ByLayer
 62
  256
370
   -1
100
AcDbCircle
 10
25
 20
-122
 40
5
100
AcDbArc
 50
90
 51
180
  0
CIRCLE
  5
144
100
AcDbEntity
  8
0
  6
ByLayer
 62
  256
370
   -1
100
AcDbCircle
 10
38
 20
-48
 40
1.51222032613632
  0
CIRCLE
  5
145
100
AcDbEntity
  8
0
  6
ByLayer
 62
  256
370
   -1
100
AcDbCircle
 10
115
 20
-48
 40
1.51222032613632
  0
DIMENSION
  5
146
100
AcDbEntity
  8
0
  6
ByLayer
 62
  256
370
   -1
100
AcDbDimension
  2
*D14
 10
115
 20
-43
 30
0
 11
76.5
 21
-43
 31
0
 70
   32
 71
    5
 72
    0
  3
Standard
 53
0
210
0
220
0
230
1
100
AcDbAlignedDimension
 13
38
 23
-47
 33
0
 14
115
 24
-47
 34
0
100
AcDbRotatedDimension
  0
CIRCLE
  5
147
100
AcDbEntity
  8
0
  6
ByLayer
 62
  256
370
   -1
100
AcDbCircle
 10
115
 20
-110
 40
1.51222032613632
  0
DIMENSION
  5
148
100
AcDbEntity
  8
0
  6
ByLayer
 62
  256
370
   -1
100
AcDbDimension
  2
*D15
 10
34
 20
-108
 30
0
 11
34
 21
-79
 31
0
 70
   32
 71
    5
 72
    0
  3
Standard
 53
0
210
0
220
0
230
1
100
AcDbAlignedDimension
 13
37
 23
-48
 33
0
 14
37
 24
-110
 34
0
 50
90
100
AcDbRotatedDimension
  0
CIRCLE
  5
149
100
AcDbEntity
  8
0
  6
ByLayer
 62
  256
370
   -1
100
AcDbCircle
 10
38
 20
-110
 40
1.51222032613632
  0
CIRCLE
  5
14A
100
AcDbEntity
  8
0
  6
ByLayer
 62
  256
370
   -1
100
AcDbCircle
 10
38
 20
-38
 40
1.51222032613632
  0
CIRCLE
  5
14B
100
AcDbEntity
  8
0
  6
ByLayer
 62
  256
370
   -1
100
AcDbCircle
 10
115
 20
-38
 40
1.51222032613632
  0
CIRCLE
  5
14C
100
AcDbEntity
  8
0
  6
ByLayer
 62
  256
370
   -1
100
AcDbCircle
 10
115
 20
-100
 40
1.51222032613632
  0
CIRCLE
  5
14D
100
AcDbEntity
  8
0
  6
ByLayer
 62
  256
370
   -1
100
AcDbCircle
 10
38
 20
-100
 40
1.51222032613632
  0
CIRCLE
  5
14E
100
AcDbEntity
  8
0
  6
ByLayer
 62
  256
370
   -1
100
AcDbCircle
 10
48
 20
-38
 40
1.51222032613632
  0
CIRCLE
  5
14F
100
AcDbEntity
  8
0
  6
ByLayer
 62
  256
370
   -1
100
AcDbCircle
 10
125
 20
-38
 40
1.51222032613632
  0
CIRCLE
  5
150
100
AcDbEntity
  8
0
  6
ByLayer
 62
  256
370
   -1
100
AcDbCircle
 10
125
 20
-100
 40
1.51222032613632
  0
CIRCLE
  5
151
100
AcDbEntity
  8
0
  6
ByLayer
 62
  256
370
   -1
100
AcDbCircle
 10
48
 20
-100
 40
1.51222032613632
  0
CIRCLE
  5
152
100
AcDbEntity
  8
0
  6
ByLayer
 62
  256
370
   -1
100
AcDbCircle
 10
48
 20
-48
 40
1.51222032613632
  0
CIRCLE
  5
153
100
AcDbEntity
  8
0
  6
ByLayer
 62
  256
370
   -1
100
AcDbCircle
 10
125
 20
-48
 40
1.51222032613632
  0
CIRCLE
  5
154
100
AcDbEntity
  8
0
  6
ByLayer
 62
  256
370
   -1
100
AcDbCircle
 10
125
 20
-110
 40
1.51222032613632
  0
CIRCLE
  5
155
100
AcDbEntity
  8
0
  6
ByLayer
 62
  256
370
   -1
100
AcDbCircle
 10
48
 20
-110
 40
1.51222032613632
  0
CIRCLE
  5
156
100
AcDbEntity
  8
0
  6
ByLayer
 62
  256
370
   -1
100
AcDbCircle
 10
48
 20
-28
 40
1.51222032613632
  0
CIRCLE
  5
157
100
AcDbEntity
  8
0
  6
ByLayer
 62
  256
370
   -1
100
AcDbCircle
 10
125
 20
-28
 40
1.51222032613632
  0
CIRCLE
  5
158
100
AcDbEntity
  8
0
  6
ByLayer
 62
  256
370
   -1
100
AcDbCircle
 10
125
 20
-90
 40
1.51222032613632
  0
CIRCLE
  5
159
100
AcDbEntity
  8
0
  6
ByLayer
 62
  256
370
   -1
100
AcDbCircle
 10
48
 20
-90
 40
1.51222032613632
  0
CIRCLE
  5
15A
100
AcDbEntity
  8
0
  6
ByLayer
 62
  256
370
   -1
100
AcDbCircle
 10
38
 20
-28
 40
1.51222032613632
  0
CIRCLE
  5
15B
100
AcDbEntity
  8
0
  6
ByLayer
 62
  256
370
   -1
100
AcDbCircle
 10
115
 20
-28
 40
1.51222032613632
  0
CIRCLE
  5
15C
100
AcDbEntity
  8
0
  6
ByLayer
 62
  256
370
   -1
100
AcDbCircle
 10
115
 20
-90
 40
1.51222032613632
  0
CIRCLE
  5
15D
100
AcDbEntity
  8
0
  6
ByLayer
 62
  256
370
   -1
100
AcDbCircle
 10
38
 20
-90
 40
1.51222032613632
  0
CIRCLE
  5
15E
100
AcDbEntity
  8
0
  6
ByLayer
 62
  256
370
   -1
100
AcDbCircle
 10
28
 20
-28
 40
1.51222032613632
  0
CIRCLE
  5
15F
100
AcDbEntity
  8
0
  6
ByLayer
 62
  256
370
   -1
100
AcDbCircle
 10
105
 20
-28
 40
1.51222032613632
  0
CIRCLE
  5
160
100
AcDbEntity
  8
0
  6
ByLayer
 62
  256
370
   -1
100
AcDbCircle
 10
105
 20
-90
 40
1.51222032613632
  0
CIRCLE
  5
161
100
AcDbEntity
  8
0
  6
ByLayer
 62
  256
370
   -1
100
AcDbCircle
 10
28
 20
-90
 40
1.51222032613632
  0
CIRCLE
  5
162
100
AcDbEntity
  8
0
  6
ByLayer
 62
  256
370
   -1
100
AcDbCircle
 10
28
 20
-38
 40
1.51222032613632
  0
CIRCLE
  5
163
100
AcDbEntity
  8
0
  6
ByLayer
 62
  256
370
   -1
100
AcDbCircle
 10
105
 20
-38
 40
1.51222032613632
  0
CIRCLE
  5
164
100
AcDbEntity
  8
0
  6
ByLayer
 62
  256
370
   -1
100
AcDbCircle
 10
105
 20
-100
 40
1.51222032613632
  0
CIRCLE
  5
165
100
AcDbEntity
  8
0
  6
ByLayer
 62
  256
370
   -1
100
AcDbCircle
 10
28
 20
-100
 40
1.51222032613632
  0
CIRCLE
  5
166
100
AcDbEntity
  8
0
  6
ByLayer
 62
  256
370
   -1
100
AcDbCircle
 10
28
 20
-48
 40
1.51222032613632
  0
CIRCLE
  5
167
100
AcDbEntity
  8
0
  6
ByLayer
 62
  256
370
   -1
100
AcDbCircle
 10
105
 20
-48
 40
1.51222032613632
  0
CIRCLE
  5
168
100
AcDbEntity
  8
0
  6
ByLayer
 62
  256
370
   -1
100
AcDbCircle
 10
105
 20
-110
 40
1.51222032613632
  0
CIRCLE
  5
169
100
AcDbEntity
  8
0
  6
ByLayer
 62
  256
370
   -1
100
AcDbCircle
 10
28
 20
-110
 40
1.51222032613632
  0
CIRCLE
  5
16A
100
AcDbEntity
  8
0
  6
ByLayer
 62
  256
370
   -1
100
AcDbCircle
 10
4
 20
-124
 40
2
  0
DIMENSION
  5
16B
100
AcDbEntity
  8
0
  6
ByLayer
 62
  256
370
   -1
100
AcDbDimension
  2
*D16
 10
-5
 20
-125
 30
0
 11
-4.999999999999996
 21
-64.5
 31
0
 70
   32
 71
    5
 72
    0
  3
Standard
 53
0
210
0
220
0
230
1
100
AcDbAlignedDimension
 13
10
 23
-5
 33
0
 14
2
 24
-124
 34
0
 50
90
100
AcDbRotatedDimension
  0
CIRCLE
  5
16C
100
AcDbEntity
  8
0
  6
ByLayer
 62
  256
370
   -1
100
AcDbCircle
 10
75
 20
-138
 40
2.23606797749979
  0
DIMENSION
  5
16D
100
AcDbEntity
  8
0
  6
ByLayer
 62
  256
370
   -1
100
AcDbDimension
  2
*D17
 10
170
 20
-150
 30
0
 11
170
 21
-72.5
 31
0
 70
   32
 71
    5
  3
Standard
 53
0
210
0
220
0
230
1
100
AcDbAlignedDimension
 13
116
 23
0
 33
0
 14
85
 24
-145
 34
0
 50
90
100
AcDbRotatedDimension
  0
DIMENSION
  5
16E
100
AcDbEntity
  8
0
  6
ByLayer
 62
  256
370
   -1
100
AcDbDimension
  2
*D18
 10
115
 20
10
 30
0
 11
96.5
 21
10
 31
0
 70
   32
 71
    5
  3
Standard
 53
0
210
0
220
0
230
1
100
AcDbAlignedDimension
 13
77
 23
1
 33
0
 14
116
 24
0
 34
0
100
AcDbRotatedDimension
  0
LINE
  5
16F
100
AcDbEntity
  8
0
  6
ByLayer
 62
  256
370
   -1
100
AcDbLine
 10
116
 20
-15
 11
145
 21
-15
  0
LINE
  5
170
100
AcDbEntity
  8
0
  6
ByLayer
 62
  256
370
   -1
100
AcDbLine
 10
116
 20
-5
 11
116
 21
-15
  0
ARC
  5
171
100
AcDbEntity
  8
0
  6
ByLayer
 62
  256
370
   -1
100
AcDbCircle
 10
111.5
 20
-4.499999999999999
 40
4.527692569068708
100
AcDbArc
 50
353.6598082540901
 51
83.65980825409008
  0
DIMENSION
  5
172
100
AcDbEntity
  8
0
  6
ByLayer
 62
  256
370
   -1
100
AcDbDimension
  2
*D19
 10
155
 20
10
 30
0
 11
133
 21
10
 31
0
 70
   32
 71
    5
  3
Standard
 53
0
210
0
220
0
230
1
100
AcDbAlignedDimension
 13
116
 23
0
 33
0
 14
150
 24
-14
 34
0
100
AcDbRotatedDimension
  0
DIMENSION
  5
173
100
AcDbEntity
  8
0
  6
ByLayer
 62
  256
370
   -1
100
AcDbDimension
  2
*D20
 10
90
 20
-115
 30
0
 11
47
 21
-115
 31
0
 70
   32
 71
    5
 72
    0
  3
Standard
 53
0
210
0
220
0
230
1
100
AcDbAlignedDimension
 13
4
 23
-122
 33
0
 14
90
 24
-121
 34
0
100
AcDbRotatedDimension
  0
ENDSEC
  0
SECTION
  2
OBJECTS
  0
DICTIONARY
  5
C
330
0
100
AcDbDictionary
281
    1
  3
ACAD_GROUP
350
D
  0
DICTIONARY
  5
D
330
C
100
AcDbDictionary
281
    1
  0
ENDSEC
  0
EOF
